<svg width="49" height="48" viewBox="0 0 49 48" fill="none" xmlns="http://www.w3.org/2000/svg">
<rect x="1" y="0.5" width="47" height="47" rx="23.5" stroke="#8B57C2"/>
<path d="M29.3 35.184V35.984H30.1V35.184H29.3ZM13.3 35.184H12.5V35.984H13.3V35.184ZM35.7 35.2V36H36.5V35.2H35.7ZM25.3 17.5968C25.2998 18.1219 25.1962 18.6418 24.995 19.1268C24.7939 19.6118 24.4992 20.0525 24.1278 20.4236C23.7563 20.7948 23.3154 21.0891 22.8302 21.2899C22.3451 21.4906 21.8251 21.5938 21.3 21.5936V23.1936C24.3928 23.1936 26.9 20.688 26.9 17.5968H25.3ZM21.3 21.5936C20.7749 21.5938 20.2549 21.4906 19.7698 21.2899C19.2846 21.0891 18.8437 20.7948 18.4722 20.4236C18.1008 20.0525 17.8061 19.6118 17.605 19.1268C17.4038 18.6418 17.3002 18.1219 17.3 17.5968H15.7C15.7002 18.332 15.8452 19.0599 16.1268 19.7391C16.4083 20.4182 16.8209 21.0353 17.3409 21.555C17.8609 22.0747 18.4782 22.4869 19.1575 22.7681C19.8368 23.0492 20.5648 23.1938 21.3 23.1936V21.5936ZM17.3 17.5968C17.3002 17.0717 17.4038 16.5518 17.605 16.0668C17.8061 15.5818 18.1008 15.1411 18.4722 14.77C18.8437 14.3988 19.2846 14.1045 19.7698 13.9037C20.2549 13.703 20.7749 13.5998 21.3 13.6V12C20.5648 11.9998 19.8368 12.1444 19.1575 12.4255C18.4782 12.7067 17.8609 13.1189 17.3409 13.6386C16.8209 14.1583 16.4083 14.7754 16.1268 15.4545C15.8452 16.1337 15.7002 16.8616 15.7 17.5968H17.3ZM21.3 13.6C22.3603 13.6 23.3772 14.021 24.1273 14.7704C24.8773 15.5199 25.2992 16.5365 25.3 17.5968H26.9C26.8998 16.8616 26.7548 16.1337 26.4732 15.4545C26.1917 14.7754 25.7791 14.1583 25.2591 13.6386C24.7391 13.1189 24.1218 12.7067 23.4425 12.4255C22.7632 12.1444 22.0352 11.9998 21.3 12V13.6ZM29.3 34.384H13.3V35.984H29.3V34.384ZM14.1 35.184V31.992H12.5V35.184H14.1ZM18.1 27.9904H24.5V26.3904H18.1V27.9904ZM28.5 31.9904V35.184H30.1V31.9904H28.5ZM24.5 27.9904C25.5609 27.9904 26.5783 28.4118 27.3284 29.162C28.0786 29.9121 28.5 30.9295 28.5 31.9904H30.1C30.1 30.5052 29.51 29.0808 28.4598 28.0306C27.4096 26.9804 25.9852 26.3904 24.5 26.3904V27.9904ZM14.1 31.992C14.1 30.9311 14.5214 29.9121 15.2716 29.162C16.0217 28.4118 17.0391 27.9904 18.1 27.9904V26.3904C16.6148 26.3904 15.1904 26.9804 14.1402 28.0306C13.09 29.0808 12.5 30.5068 12.5 31.992H14.1ZM34.9 32.8V35.2H36.5V32.8H34.9ZM35.7 34.4H31.7V36H35.7V34.4ZM31.7 29.6C32.5487 29.6 33.3626 29.9371 33.9627 30.5373C34.5629 31.1374 34.9 31.9513 34.9 32.8H36.5C36.5 31.527 35.9943 30.3061 35.0941 29.4059C34.1939 28.5057 32.973 28 31.7 28V29.6ZM30.9 24.8C30.2635 24.8 29.653 24.5471 29.2029 24.0971C28.7529 23.647 28.5 23.0365 28.5 22.4H26.9C26.9 23.4609 27.3214 24.4783 28.0716 25.2284C28.8217 25.9786 29.8391 26.4 30.9 26.4V24.8ZM33.3 22.4C33.3 23.0365 33.0471 23.647 32.5971 24.0971C32.147 24.5471 31.5365 24.8 30.9 24.8V26.4C31.9609 26.4 32.9783 25.9786 33.7284 25.2284C34.4786 24.4783 34.9 23.4609 34.9 22.4H33.3ZM30.9 20C31.5365 20 32.147 20.2529 32.5971 20.7029C33.0471 21.153 33.3 21.7635 33.3 22.4H34.9C34.9 21.3391 34.4786 20.3217 33.7284 19.5716C32.9783 18.8214 31.9609 18.4 30.9 18.4V20ZM30.9 18.4C29.8391 18.4 28.8217 18.8214 28.0716 19.5716C27.3214 20.3217 26.9 21.3391 26.9 22.4H28.5C28.5 21.7635 28.7529 21.153 29.2029 20.7029C29.653 20.2529 30.2635 20 30.9 20V18.4Z" fill="#8B57C2"/>
</svg>
