<svg width="49" height="48" viewBox="0 0 49 48" fill="none" xmlns="http://www.w3.org/2000/svg">
<rect x="1" y="0.5" width="47" height="47" rx="23.5" stroke="#8B57C2"/>
<path d="M19.0001 15.5C19.0001 15.1022 19.1581 14.7207 19.4394 14.4394C19.7207 14.158 20.1023 14 20.5001 14H28.5004C28.6974 14 28.8924 14.0388 29.0744 14.1142C29.2564 14.1896 29.4218 14.3001 29.5611 14.4394C29.7004 14.5786 29.8109 14.744 29.8862 14.926C29.9616 15.108 30.0004 15.3031 30.0004 15.5C30.0004 15.697 29.9616 15.8921 29.8862 16.0741C29.8109 16.2561 29.7004 16.4214 29.5611 16.5607C29.4218 16.7 29.2564 16.8105 29.0744 16.8859C28.8924 16.9613 28.6974 17.0001 28.5004 17.0001H20.5001C20.1023 17.0001 19.7207 16.8421 19.4394 16.5607C19.1581 16.2794 19.0001 15.8979 19.0001 15.5ZM19.0501 20.5602C19.1906 20.3855 19.3685 20.2444 19.5708 20.1475C19.773 20.0506 19.9944 20.0003 20.2186 20.0002H28.7809C29.0053 20.0001 29.2269 20.0504 29.4293 20.1473C29.6317 20.2442 29.8098 20.3853 29.9504 20.5602L32.1695 23.3218C32.3836 23.5883 32.5002 23.92 32.5 24.2618V32.5006C32.5 32.8984 32.342 33.28 32.0606 33.5613C31.7793 33.8426 31.3978 34.0006 31 34.0006H18C17.6022 34.0006 17.2207 33.8426 16.9394 33.5613C16.658 33.28 16.5 32.8984 16.5 32.5006V24.2618C16.4998 23.92 16.6164 23.5883 16.8305 23.3218L19.0501 20.5602Z" stroke="#8B57C2" stroke-width="2" stroke-linejoin="round"/>
<path d="M21.5001 27.0006H27.5003M24.5002 24.0005V30.0007" stroke="#8B57C2" stroke-width="2" stroke-linecap="round" stroke-linejoin="round"/>
</svg>
