<svg width="49" height="48" viewBox="0 0 49 48" fill="none" xmlns="http://www.w3.org/2000/svg">
<rect x="1" y="0.5" width="47" height="47" rx="23.5" stroke="#8B57C2"/>
<path d="M12.5 22.1875L15.8067 14.5908C16.0124 14.1183 16.3546 13.7156 16.7907 13.4328C17.2269 13.15 17.7378 12.9995 18.26 13H30.7427C31.2645 13.0001 31.7748 13.1508 32.2104 13.4336C32.646 13.7163 32.9877 14.1187 33.1933 14.5908L36.5 22.1875M12.5 22.1875H36.5M12.5 22.1875V31.375M36.5 22.1875V31.375M12.5 31.375V32.0313C12.5 32.5534 12.7107 33.0542 13.0858 33.4234C13.4609 33.7926 13.9696 34 14.5 34C15.0304 34 15.5391 33.7926 15.9142 33.4234C16.2893 33.0542 16.5 32.5534 16.5 32.0313V31.375M12.5 31.375H16.5M36.5 31.375V32.0313C36.5 32.5534 36.2893 33.0542 35.9142 33.4234C35.5391 33.7926 35.0304 34 34.5 34C33.9696 34 33.4609 33.7926 33.0858 33.4234C32.7107 33.0542 32.5 32.5534 32.5 32.0313V31.375M36.5 31.375H32.5M32.5 31.375H16.5" stroke="#8B57C2" stroke-width="2" stroke-linecap="round" stroke-linejoin="round"/>
</svg>
