<svg width="49" height="48" viewBox="0 0 49 48" fill="none" xmlns="http://www.w3.org/2000/svg">
<rect x="1" y="0.5" width="47" height="47" rx="23.5" stroke="#8B57C2"/>
<path d="M27.1803 14.0327C27.4166 14.0956 27.618 14.2493 27.7405 14.4602C27.8629 14.671 27.8963 14.9216 27.8332 15.1569L22.9484 33.3189C22.8849 33.5544 22.7302 33.7551 22.5182 33.877C22.3062 33.9988 22.0542 34.0318 21.8178 33.9686C21.5814 33.9054 21.3799 33.7513 21.2576 33.5401C21.1352 33.3289 21.1021 33.078 21.1656 32.8425L26.0516 14.6805C26.083 14.564 26.1371 14.4548 26.2109 14.3591C26.2847 14.2634 26.3767 14.1831 26.4816 14.1228C26.5865 14.0626 26.7024 14.0235 26.8225 14.0078C26.9426 13.9921 27.0646 14.0002 27.1816 14.0315M29.9627 17.7704C30.1263 17.5894 30.3553 17.4804 30.5995 17.4676C30.8436 17.4547 31.0829 17.539 31.2648 17.7018L33.4004 19.6172C34.3066 20.428 35.0566 21.1015 35.573 21.7114C36.1139 22.3544 36.5 23.0439 36.5 23.8962C36.5 24.7474 36.1152 25.4369 35.573 26.0786C35.0566 26.6897 34.3066 27.3633 33.4004 28.174L31.2648 30.0894C31.083 30.2525 30.8436 30.3369 30.5993 30.3242C30.355 30.3114 30.1258 30.2025 29.9621 30.0215C29.7984 29.8404 29.7136 29.602 29.7264 29.3586C29.7392 29.1153 29.8485 28.887 30.0303 28.7239L32.1168 26.8538C33.0857 25.9855 33.7385 25.3965 34.1615 24.8968C34.5672 24.4155 34.6557 24.1351 34.6557 23.895C34.6557 23.6562 34.5672 23.3758 34.1615 22.8945C33.7385 22.3936 33.0857 21.8045 32.1168 20.9374L30.0303 19.0673C29.9401 18.9867 29.8668 18.889 29.8146 18.7801C29.7623 18.6712 29.7321 18.553 29.7257 18.4325C29.7193 18.3119 29.7368 18.1913 29.7773 18.0774C29.8177 17.9636 29.8803 17.8589 29.9615 17.7692M18.9697 19.0673C19.1515 18.9043 19.2608 18.676 19.2736 18.4326C19.2864 18.1893 19.2016 17.9509 19.0379 17.7698C18.8742 17.5887 18.645 17.4798 18.4007 17.4671C18.1564 17.4543 17.917 17.5388 17.7352 17.7018L15.5996 19.6172C14.6934 20.428 13.9434 21.1015 13.427 21.7114C12.8861 22.3544 12.5 23.0439 12.5 23.8962C12.5 24.7474 12.8848 25.4369 13.427 26.0786C13.9434 26.6897 14.6934 27.3633 15.5996 28.174L17.7352 30.0894C17.917 30.2525 18.1564 30.3369 18.4007 30.3242C18.645 30.3114 18.8742 30.2025 19.0379 30.0215C19.2016 29.8404 19.2864 29.602 19.2736 29.3586C19.2608 29.1153 19.1515 28.887 18.9697 28.7239L16.8832 26.8538C15.9143 25.9855 15.2615 25.3965 14.8385 24.8968C14.4328 24.4155 14.3443 24.1351 14.3443 23.895C14.3443 23.6562 14.4328 23.3758 14.8385 22.8945C15.2615 22.3936 15.9143 21.8045 16.8832 20.9374L18.9697 19.0673Z" fill="#8B57C2"/>
</svg>
