<svg width="49" height="48" viewBox="0 0 49 48" fill="none" xmlns="http://www.w3.org/2000/svg">
<rect x="1" y="0.5" width="47" height="47" rx="23.5" stroke="#8B57C2"/>
<path d="M24.5 29.4054V34M19.8847 34H29.1154M35.4477 30.1773C28.1859 29.1482 20.8142 29.1482 13.5524 30.1773C13.4223 30.1956 13.2898 30.1861 13.1638 30.1494C13.0377 30.1126 12.921 30.0495 12.8214 29.9643C12.7218 29.8791 12.6416 29.7736 12.5862 29.6551C12.5308 29.5365 12.5014 29.4076 12.5001 29.2768V13.9126C12.4983 13.7809 12.5256 13.6504 12.58 13.5303C12.6344 13.4103 12.7146 13.3035 12.8149 13.2176C12.9153 13.1318 13.0333 13.0689 13.1607 13.0333C13.2881 12.9978 13.4218 12.9906 13.5524 13.0121C20.8151 14.0229 28.1849 14.0229 35.4477 13.0121C35.5767 12.9908 35.7088 12.9977 35.8349 13.0321C35.961 13.0666 36.0781 13.1279 36.1781 13.2117C36.2781 13.2956 36.3587 13.4 36.4142 13.5178C36.4698 13.6357 36.4991 13.7641 36.5 13.8943V29.2584C36.501 29.3906 36.4734 29.5215 36.419 29.6421C36.3647 29.7628 36.2849 29.8704 36.185 29.9575C36.0852 30.0447 35.9676 30.1095 35.8404 30.1474C35.7132 30.1853 35.5792 30.1955 35.4477 30.1773Z" stroke="#8B57C2" stroke-width="2" stroke-linecap="round" stroke-linejoin="round"/>
</svg>
