<svg width="49" height="48" viewBox="0 0 49 48" fill="none" xmlns="http://www.w3.org/2000/svg">
<rect x="1" y="0.5" width="47" height="47" rx="23.5" stroke="#8B57C2"/>
<path d="M24.2998 29.2053H24.9927V28.1653C25.5994 28.0791 26.1137 27.8333 26.5358 27.428C26.9579 27.0227 27.1693 26.5004 27.1702 25.8613C27.1702 25.3067 26.9535 24.8427 26.5202 24.4693C26.0869 24.096 25.5885 23.7876 25.0252 23.544V20.8467C25.2748 20.8956 25.491 21.0022 25.6739 21.1667C25.8568 21.3311 25.9889 21.5156 26.0704 21.72L26.9895 21.3227C26.8214 20.9244 26.5609 20.5978 26.2082 20.3427C25.8555 20.0876 25.4611 19.9187 25.0252 19.836V18.796H24.2998V19.828C23.6931 19.8902 23.1788 20.1049 22.7567 20.472C22.3346 20.8391 22.1232 21.3262 22.1223 21.9333C22.1223 22.4996 22.3446 22.9796 22.7892 23.3733C23.2338 23.7671 23.7373 24.0836 24.2998 24.3227V27.136C23.8864 27.0587 23.5484 26.8911 23.2858 26.6333C23.0232 26.3756 22.8395 26.0689 22.7346 25.7133L21.822 26.1107C21.9953 26.6724 22.2987 27.1347 22.732 27.4973C23.1653 27.8582 23.6879 28.0831 24.2998 28.172V29.2053ZM25.0252 27.128V24.5947C25.3285 24.7369 25.5976 24.908 25.8325 25.108C26.0674 25.308 26.1848 25.5756 26.1848 25.9107C26.1848 26.2929 26.0773 26.5733 25.8624 26.752C25.6475 26.9307 25.3684 27.056 25.0252 27.128ZM24.2998 23.2387C24.0112 23.0929 23.7404 22.9209 23.4873 22.7227C23.2342 22.5244 23.1077 22.2613 23.1077 21.9333C23.1077 21.5778 23.2303 21.3178 23.4756 21.1533C23.7209 20.9889 23.9956 20.884 24.2998 20.8387V23.2387ZM19.3 32C17.1273 32 15.2839 31.2244 13.7698 29.6733C12.2557 28.1222 11.4991 26.2329 11.5 24.0053C11.5009 21.7778 12.2575 19.8867 13.7698 18.332C15.2821 16.7773 17.1255 16 19.3 16H29.7C31.8727 16 33.7161 16.7756 35.2302 18.3267C36.7443 19.8778 37.5009 21.7671 37.5 23.9947C37.4991 26.2222 36.7425 28.1133 35.2302 29.668C33.7179 31.2227 31.8745 32 29.7 32H19.3ZM19.3 30.6667H29.7C31.4983 30.6667 33.0315 30.0164 34.2994 28.716C35.5673 27.4156 36.2009 25.8436 36.2 24C36.1991 22.1564 35.5652 20.5844 34.2981 19.284C33.031 17.9836 31.4983 17.3333 29.7 17.3333H19.3C17.5017 17.3333 15.969 17.9836 14.7019 19.284C13.4348 20.5844 12.8009 22.1564 12.8 24C12.7991 25.8436 13.4331 27.416 14.7019 28.7173C15.9707 30.0187 17.5034 30.6684 19.3 30.6667Z" fill="#8B57C2"/>
</svg>
