<svg width="49" height="48" viewBox="0 0 49 48" fill="none" xmlns="http://www.w3.org/2000/svg">
<rect x="1" y="0.5" width="47" height="47" rx="23.5" stroke="#8B57C2"/>
<path d="M22.8396 19.5088C21.682 20.3879 20.5868 21.3466 19.5619 22.3779C14.7321 27.2176 12.2866 32.6104 14.097 34.4261C15.9073 36.2402 21.2908 33.788 26.1189 28.95C27.1482 27.9225 28.1049 26.8245 28.9821 25.6639" stroke="#8B57C2" stroke-width="1.5" stroke-linecap="round" stroke-linejoin="round"/>
<path d="M28.9822 25.6639C31.8302 29.452 32.9901 33.0154 31.5839 34.4244C29.7719 36.2402 24.3901 33.788 19.5603 28.95C14.7339 24.1086 12.2884 18.7175 14.0987 16.9017C15.5049 15.4944 19.061 16.6567 22.8413 19.5088" stroke="#8B57C2" stroke-width="1.5" stroke-linecap="round" stroke-linejoin="round"/>
<path d="M21.9904 25.6637C21.9904 25.8894 22.0798 26.1058 22.2391 26.2654C22.3983 26.425 22.6143 26.5146 22.8395 26.5146C23.0647 26.5146 23.2807 26.425 23.4399 26.2654C23.5991 26.1058 23.6886 25.8894 23.6886 25.6637C23.6886 25.4381 23.5991 25.2216 23.4399 25.0621C23.2807 24.9025 23.0647 24.8129 22.8395 24.8129C22.6143 24.8129 22.3983 24.9025 22.2391 25.0621C22.0798 25.2216 21.9904 25.4381 21.9904 25.6637ZM26.253 18.2544C25.718 18.1608 25.718 17.3933 26.253 17.3014C27.1978 17.1367 28.0722 16.6938 28.7649 16.0292C29.4575 15.3646 29.9369 14.5083 30.142 13.5695L30.1725 13.4215C30.288 12.894 31.0386 12.8906 31.1575 13.4164L31.1983 13.5883C31.411 14.5228 31.8947 15.3736 32.5884 16.0336C33.2821 16.6937 34.155 17.1335 35.0975 17.298C35.6341 17.3916 35.6341 18.1642 35.0975 18.2561C34.155 18.4206 33.2821 18.8605 32.5884 19.5205C31.8947 20.1806 31.411 21.0313 31.1983 21.9659L31.1575 22.1378C31.0386 22.6653 30.288 22.6619 30.1725 22.1343L30.1386 21.9863C29.9335 21.0476 29.4541 20.1913 28.7615 19.5266C28.0688 18.862 27.1944 18.4191 26.2496 18.2544H26.253Z" stroke="#8B57C2" stroke-width="1.5" stroke-linecap="round" stroke-linejoin="round"/>
</svg>
