<svg width="24" height="24" viewBox="0 0 24 24" fill="none" xmlns="http://www.w3.org/2000/svg">
<path d="M20.2649 9.53382H14.4656V3.7359C14.4655 3.62056 14.4197 3.50996 14.3381 3.42838C14.2566 3.3468 14.146 3.30091 14.0307 3.30078H9.96869C9.85333 3.30084 9.74272 3.34672 9.66117 3.42831C9.57962 3.5099 9.53381 3.62054 9.53381 3.7359L9.53357 9.5343L3.73541 9.53406C3.50477 9.53406 3.30053 9.7383 3.30029 9.96918V14.0312C3.30023 14.0883 3.31144 14.1449 3.33329 14.1977C3.35514 14.2505 3.38719 14.2985 3.42761 14.3389C3.46803 14.3793 3.51602 14.4113 3.56884 14.4332C3.62166 14.455 3.67827 14.4662 3.73541 14.4661H9.53381V20.2657C9.53388 20.381 9.57974 20.4917 9.66133 20.5733C9.74291 20.6549 9.85355 20.7007 9.96893 20.7008H14.0305C14.0876 20.7008 14.1442 20.6895 14.197 20.6677C14.2498 20.6458 14.2977 20.6137 14.3381 20.5733C14.3785 20.5329 14.4106 20.485 14.4325 20.4322C14.4543 20.3794 14.4656 20.3228 14.4656 20.2657V14.4663L20.2647 14.4661C20.3219 14.4662 20.3785 14.455 20.4313 14.4331C20.4842 14.4113 20.5322 14.3793 20.5726 14.3388C20.613 14.2984 20.6451 14.2504 20.6669 14.1976C20.6887 14.1447 20.6999 14.0881 20.6998 14.0309L20.7001 9.96894C20.7001 9.85354 20.6542 9.74287 20.5726 9.66126C20.491 9.57966 20.3803 9.53382 20.2649 9.53382Z" fill="#8B57C2"/>
</svg>
