<svg width="64" height="64" viewBox="0 0 64 64" fill="none" xmlns="http://www.w3.org/2000/svg">
<circle cx="32" cy="32" r="31.5" fill="#35293C" stroke="#8B57C2"/>
<circle cx="56" cy="11" r="3" fill="#8B57C2"/>
<circle cx="9" cy="53" r="6" fill="#8B57C2"/>
<path d="M45.5449 30.065C46.0707 28.7781 46.2464 27.3749 46.0542 25.9981C45.862 24.6213 45.3087 23.3199 44.4507 22.2261C43.5926 21.1324 42.4603 20.2852 41.1688 19.7708C39.8773 19.2564 38.4727 19.0931 37.0976 19.2973C36.2454 18.1996 35.118 17.347 33.8297 16.826C32.5414 16.3049 31.1382 16.1341 29.7626 16.3307C28.3869 16.5274 27.0878 17.0846 25.9971 17.9457C24.9064 18.8068 24.0631 19.9412 23.5526 21.2337C22.1752 21.4223 20.8723 21.9721 19.7763 22.8273C18.6802 23.6825 17.8301 24.8126 17.3123 26.1028C16.7944 27.393 16.6274 28.7972 16.8281 30.1729C17.0288 31.5485 17.5901 32.8465 18.4549 33.935C18.0329 34.9692 17.8357 36.0814 17.8765 37.1977C17.9173 38.314 18.1951 39.4089 18.6914 40.4096C19.1878 41.4103 19.8914 42.2939 20.7554 43.0019C21.6195 43.7098 22.6243 44.2258 23.7031 44.5156C24.3717 44.6986 25.0615 44.7932 25.7548 44.7969C26.1393 44.7965 26.5234 44.7678 26.9037 44.7111C27.756 45.8084 28.8835 46.6606 30.1717 47.1814C31.4599 47.7021 32.8629 47.8727 34.2383 47.6759C35.6138 47.4791 36.9126 46.9219 38.0031 46.0608C39.0936 45.1998 39.9369 44.0656 40.4473 42.7733C41.8247 42.5847 43.1276 42.0349 44.2236 41.1797C45.3197 40.3245 46.1698 39.1944 46.6876 37.9042C47.2054 36.6141 47.3725 35.2098 47.1718 33.8341C46.9711 32.4585 46.4098 31.1605 45.5449 30.072V30.065ZM39.7132 21.6542C41.1308 22.0332 42.3442 22.9511 43.0946 24.2121C43.8449 25.4732 44.0727 26.9775 43.7295 28.4042C43.596 28.3148 43.4595 28.2299 43.3203 28.1497L37.0624 24.53C36.8914 24.4312 36.6974 24.3793 36.4999 24.3793C36.3025 24.3793 36.1085 24.4312 35.9374 24.53L29.7499 28.1033V25.5045L35.4453 22.2167C36.0842 21.8456 36.7904 21.6048 37.5229 21.5082C38.2555 21.4117 38.9999 21.4613 39.7132 21.6542ZM34.2499 33.2994L31.9999 34.5987L29.7499 33.2994V30.7006L31.9999 29.4012L34.2499 30.7006V33.2994ZM25.2499 24.125C25.2505 23.0253 25.5733 21.9499 26.1786 21.0317C26.7838 20.1136 27.6449 19.393 28.6554 18.9591C29.6658 18.5252 30.7813 18.3969 31.8639 18.5903C32.9464 18.7836 33.9486 19.29 34.7464 20.0469C34.6057 20.1186 34.4651 20.1875 34.3245 20.2747L28.0624 23.8817C27.8916 23.9803 27.7497 24.1222 27.651 24.293C27.5522 24.4638 27.5002 24.6576 27.4999 24.8548V32L25.2499 30.7006V24.125ZM19.7459 26.2245C20.4627 24.9745 21.6345 24.0495 23.0168 23.6426C23.0063 23.8032 23.0006 23.9641 22.9999 24.125V31.3503C22.9999 31.5478 23.0519 31.7419 23.1506 31.9129C23.2493 32.084 23.3914 32.2261 23.5624 32.3248L29.7499 35.8967L27.4999 37.2031L21.8046 33.9083C20.5127 33.1623 19.57 31.9337 19.184 30.4928C18.7979 29.0518 19 27.5165 19.7459 26.2245ZM24.2867 42.3458C22.8691 41.9668 21.6556 41.0489 20.9053 39.7878C20.155 38.5268 19.9272 37.0224 20.2704 35.5958C20.404 35.6844 20.539 35.7701 20.6796 35.8503L26.9374 39.47C27.1085 39.5687 27.3025 39.6207 27.4999 39.6207C27.6974 39.6207 27.8914 39.5687 28.0624 39.47L34.2499 35.8967V38.4955L28.5546 41.7833C27.9157 42.1544 27.2095 42.3952 26.477 42.4917C25.7444 42.5883 24.9999 42.5387 24.2867 42.3458ZM38.7499 39.875C38.7505 40.975 38.4286 42.051 37.8239 42.97C37.2193 43.8889 36.3585 44.6103 35.348 45.0451C34.3376 45.4798 33.2218 45.6088 32.1389 45.4159C31.0559 45.2231 30.0532 44.7169 29.2549 43.9601C29.3956 43.8884 29.5362 43.8125 29.6768 43.7309L35.9374 40.1183C36.1083 40.0196 36.2502 39.8778 36.3489 39.707C36.4477 39.5362 36.4997 39.3424 36.4999 39.1451V32L38.7499 33.2994V39.875ZM44.254 37.7755C43.5372 39.0255 42.3654 39.9505 40.9831 40.3573C40.9929 40.197 40.9999 40.0367 40.9999 39.875V32.6497C41 32.4522 40.948 32.2581 40.8493 32.087C40.7505 31.916 40.6085 31.7739 40.4374 31.6751L34.2499 28.1033L36.4999 26.8039L42.1953 30.0917C43.4872 30.8377 44.4299 32.0662 44.8159 33.5072C45.202 34.9482 44.9999 36.4835 44.254 37.7755Z" fill="#8B57C2"/>
</svg>
