<svg width="64" height="64" viewBox="0 0 64 64" fill="none" xmlns="http://www.w3.org/2000/svg">
<circle cx="32" cy="32" r="31.5" fill="#35293C" stroke="#8B57C2"/>
<circle cx="56" cy="11" r="3" fill="#8B57C2"/>
<circle cx="9" cy="53" r="6" fill="#8B57C2"/>
<path d="M41 37.625C40.4375 37.625 39.875 37.4 39.425 36.95L36.05 33.575C35.6 33.125 35.375 32.5625 35.375 32C35.375 31.4375 35.6 30.875 36.05 30.425L39.425 27.05C39.875 26.6 40.4375 26.375 41 26.375C41.5625 26.375 42.125 26.6 42.575 27.05L45.95 30.425C46.4 30.875 46.625 31.4375 46.625 32C46.625 32.5625 46.4 33.125 45.95 33.575L42.575 36.95C42.125 37.4 41.5625 37.625 41 37.625ZM41 28.625L37.625 32L41 35.375L44.375 32L41 28.625ZM32 28.625C31.4375 28.625 30.875 28.4 30.425 27.95L27.05 24.575C26.6 24.125 26.375 23.5625 26.375 23C26.375 22.4375 26.6 21.875 27.05 21.425L30.425 18.05C30.875 17.6 31.4375 17.375 32 17.375C32.5625 17.375 33.125 17.6 33.575 18.05L36.95 21.425C37.4 21.875 37.625 22.4375 37.625 23C37.625 23.5625 37.4 24.125 36.95 24.575L33.575 27.95C33.125 28.4 32.5625 28.625 32 28.625ZM32 19.625L28.625 23L32 26.375L35.375 23L32 19.625ZM32 46.625C31.4375 46.625 30.875 46.4 30.425 45.95L27.05 42.575C26.6 42.125 26.375 41.5625 26.375 41C26.375 40.4375 26.6 39.875 27.05 39.425L30.425 36.05C30.875 35.6 31.4375 35.375 32 35.375C32.5625 35.375 33.125 35.6 33.575 36.05L36.95 39.425C37.4 39.875 37.625 40.4375 37.625 41C37.625 41.5625 37.4 42.125 36.95 42.575L33.575 45.95C33.125 46.4 32.5625 46.625 32 46.625ZM32 37.625L28.625 41L32 44.375L35.375 41L32 37.625ZM23 37.625C22.4375 37.625 21.875 37.4 21.425 36.95L18.05 33.575C17.6 33.125 17.375 32.5625 17.375 32C17.375 31.4375 17.6 30.875 18.05 30.425L21.425 27.05C21.875 26.6 22.4375 26.375 23 26.375C23.5625 26.375 24.125 26.6 24.575 27.05L27.95 30.425C28.4 30.875 28.625 31.4375 28.625 32C28.625 32.5625 28.4 33.125 27.95 33.575L24.575 36.95C24.125 37.4 23.5625 37.625 23 37.625ZM23 28.625L19.625 32L23 35.375L26.375 32L23 28.625Z" fill="#8B57C2"/>
</svg>
