<svg width="64" height="64" viewBox="0 0 64 64" fill="none" xmlns="http://www.w3.org/2000/svg">
<circle cx="32" cy="32" r="31.5" fill="#35293C" stroke="#8B57C2"/>
<circle cx="56" cy="11" r="3" fill="#8B57C2"/>
<circle cx="9" cy="53" r="6" fill="#8B57C2"/>
<path d="M30.875 14C32.4219 14 33.9102 14.1992 35.3398 14.5977C36.7695 14.9961 38.1172 15.5645 39.3828 16.3027C40.6484 17.041 41.7852 17.9199 42.793 18.9395C43.8008 19.959 44.6797 21.1016 45.4297 22.3672C46.1797 23.6328 46.748 24.9746 47.1348 26.3926C47.5215 27.8105 47.7266 29.3047 47.75 30.875C47.75 32.4219 47.5508 33.9102 47.1523 35.3398C46.7539 36.7695 46.1855 38.1172 45.4473 39.3828C44.709 40.6484 43.8301 41.7852 42.8105 42.793C41.791 43.8008 40.6484 44.6797 39.3828 45.4297C38.1172 46.1797 36.7754 46.748 35.3574 47.1348C33.9395 47.5215 32.4453 47.7266 30.875 47.75C29.3281 47.75 27.8398 47.5508 26.4102 47.1523C24.9805 46.7539 23.6328 46.1855 22.3672 45.4473C21.1016 44.709 19.9648 43.8301 18.957 42.8105C17.9492 41.791 17.0703 40.6484 16.3203 39.3828C15.5703 38.1172 15.002 36.7754 14.6152 35.3574C14.2285 33.9395 14.0234 32.4453 14 30.875C14 29.3281 14.1992 27.8398 14.5977 26.4102C14.9961 24.9805 15.5645 23.6328 16.3027 22.3672C17.041 21.1016 17.9199 19.9648 18.9395 18.957C19.959 17.9492 21.1016 17.0703 22.3672 16.3203C23.6328 15.5703 24.9746 15.002 26.3926 14.6152C27.8105 14.2285 29.3047 14.0234 30.875 14ZM30.875 45.5C32.2227 45.5 33.5176 45.3242 34.7598 44.9727C36.002 44.6211 37.1621 44.1289 38.2402 43.4961C39.3184 42.8633 40.3086 42.1016 41.2109 41.2109C42.1133 40.3203 42.875 39.3359 43.4961 38.2578C44.1172 37.1797 44.6094 36.0137 44.9727 34.7598C45.3359 33.5059 45.5117 32.2109 45.5 30.875C45.5 29.5273 45.3242 28.2324 44.9727 26.9902C44.6211 25.748 44.1289 24.5879 43.4961 23.5098C42.8633 22.4316 42.1016 21.4414 41.2109 20.5391C40.3203 19.6367 39.3359 18.875 38.2578 18.2539C37.1797 17.6328 36.0137 17.1406 34.7598 16.7773C33.5059 16.4141 32.2109 16.2383 30.875 16.25C29.5273 16.25 28.2324 16.4258 26.9902 16.7773C25.748 17.1289 24.5879 17.6211 23.5098 18.2539C22.4316 18.8867 21.4414 19.6484 20.5391 20.5391C19.6367 21.4297 18.875 22.4141 18.2539 23.4922C17.6328 24.5703 17.1406 25.7363 16.7773 26.9902C16.4141 28.2441 16.2383 29.5391 16.25 30.875C16.25 32.2227 16.4258 33.5176 16.7773 34.7598C17.1289 36.002 17.6211 37.1621 18.2539 38.2402C18.8867 39.3184 19.6484 40.3086 20.5391 41.2109C21.4297 42.1133 22.4141 42.875 23.4922 43.4961C24.5703 44.1172 25.7363 44.6094 26.9902 44.9727C28.2441 45.3359 29.5391 45.5117 30.875 45.5ZM33.8984 29.3984C34.1328 29.8672 34.25 30.3594 34.25 30.875C34.25 31.3438 34.1621 31.7832 33.9863 32.1934C33.8105 32.6035 33.5703 32.9609 33.2656 33.2656C32.9609 33.5703 32.6035 33.8105 32.1934 33.9863C31.7832 34.1621 31.3438 34.25 30.875 34.25C30.4062 34.25 29.9668 34.1621 29.5566 33.9863C29.1465 33.8105 28.7891 33.5703 28.4844 33.2656C28.1797 32.9609 27.9395 32.6035 27.7637 32.1934C27.5879 31.7832 27.5 31.3438 27.5 30.875C27.5 30.4062 27.5879 29.9668 27.7637 29.5566C27.9395 29.1465 28.1797 28.7891 28.4844 28.4844C28.7891 28.1797 29.1465 27.9395 29.5566 27.7637C29.9668 27.5879 30.4062 27.5 30.875 27.5C31.3906 27.5 31.8828 27.6172 32.3516 27.8516L32.334 27.834L38.8027 21.3652L40.3848 22.9473L33.916 29.416L33.8984 29.3984ZM30.875 32C31.1797 32 31.4434 31.8887 31.666 31.666C31.8887 31.4434 32 31.1797 32 30.875C32 30.5703 31.8887 30.3066 31.666 30.084C31.4434 29.8613 31.1797 29.75 30.875 29.75C30.5703 29.75 30.3066 29.8613 30.084 30.084C29.8613 30.3066 29.75 30.5703 29.75 30.875C29.75 31.1797 29.8613 31.4434 30.084 31.666C30.3066 31.8887 30.5703 32 30.875 32ZM42.125 25.8125C42.4883 26.6094 42.7578 27.4297 42.9336 28.2734C43.1094 29.1172 43.2031 29.9844 43.2148 30.875C43.2148 32.5156 42.9102 34.0918 42.3008 35.6035C41.6914 37.1152 40.8008 38.457 39.6289 39.6289L38.0293 38.0293C38.9785 37.0801 39.7109 35.9961 40.2266 34.7773C40.7422 33.5586 41 32.2754 41 30.9277C41 29.4746 40.6953 28.0742 40.0859 26.7266L42.125 25.8125ZM35.0234 21.6641C33.6758 21.0547 32.2754 20.75 30.8223 20.75C29.8965 20.75 29.0059 20.8672 28.1504 21.1016C27.2949 21.3359 26.4922 21.6816 25.7422 22.1387C24.9922 22.5957 24.3125 23.123 23.7031 23.7207C23.0938 24.3184 22.5723 25.0039 22.1387 25.7773C21.7051 26.5508 21.3652 27.3535 21.1191 28.1855C20.873 29.0176 20.75 29.9141 20.75 30.875C20.75 32.2227 21.0078 33.5117 21.5234 34.7422C22.0391 35.9727 22.7715 37.0684 23.7207 38.0293L22.1211 39.6289C20.9492 38.457 20.0527 37.1211 19.4316 35.6211C18.8105 34.1211 18.5 32.5391 18.5 30.875C18.5 29.7383 18.6465 28.6426 18.9395 27.5879C19.2324 26.5332 19.6484 25.5488 20.1875 24.6348C20.7266 23.7207 21.3711 22.8887 22.1211 22.1387C22.8711 21.3887 23.7031 20.75 24.6172 20.2227C25.5312 19.6953 26.5156 19.2793 27.5703 18.9746C28.625 18.6699 29.7266 18.5234 30.875 18.5352C31.7539 18.5352 32.6152 18.623 33.459 18.7988C34.3027 18.9746 35.1289 19.25 35.9375 19.625L35.0234 21.6641Z" fill="#8B57C2"/>
</svg>
