<svg width="134" height="106" viewBox="0 0 134 106" fill="none" xmlns="http://www.w3.org/2000/svg">
<path opacity="0.3" fill-rule="evenodd" clip-rule="evenodd" d="M58.7189 11.1857C50.8143 13.1235 43.0265 13.0145 35.3175 15.6242C24.0268 19.4464 9.57413 19.6406 3.48026 29.8854C-2.66466 40.2159 0.0627594 54.5025 5.96213 64.9752C11.437 74.6944 24.1833 76.3914 33.2992 82.8207C42.222 89.1137 47.8077 101.782 58.7189 102.184C69.642 102.586 76.2299 90.4774 85.5363 84.7444C95.9718 78.3158 110.68 77.3991 116.48 66.6012C122.486 55.4188 119.655 41.3681 115.22 29.4751C110.915 17.9296 103.986 5.45908 92.2629 1.66423C80.9274 -2.00507 70.2909 8.34886 58.7189 11.1857Z" fill="url(#paint0_linear_97_1454)"/>
<path d="M11.9997 34.4517C11.9997 34.9925 11.5609 35.4308 11.0196 35.4308C10.4784 35.4308 10.0396 34.9925 10.0396 34.4517C10.0396 33.911 10.4784 33.4727 11.0196 33.4727C11.5609 33.4727 11.9997 33.911 11.9997 34.4517Z" fill="#8B57C2"/>
<path d="M17.8803 34.4517C17.8803 34.9925 17.4415 35.4308 16.9002 35.4308C16.3589 35.4308 15.9201 34.9925 15.9201 34.4517C15.9201 33.911 16.3589 33.4727 16.9002 33.4727C17.4415 33.4727 17.8803 33.911 17.8803 34.4517Z" fill="#8B57C2"/>
<path d="M23.7609 34.4517C23.7609 34.9925 23.3221 35.4308 22.7808 35.4308C22.2395 35.4308 21.8007 34.9925 21.8007 34.4517C21.8007 33.911 22.2395 33.4727 22.7808 33.4727C23.3221 33.4727 23.7609 33.911 23.7609 34.4517Z" fill="#8B57C2"/>
<path d="M29.6414 34.4517C29.6414 34.9925 29.2026 35.4308 28.6613 35.4308C28.1201 35.4308 27.6812 34.9925 27.6812 34.4517C27.6812 33.911 28.1201 33.4727 28.6613 33.4727C29.2026 33.4727 29.6414 33.911 29.6414 34.4517Z" fill="#8B57C2"/>
<path d="M35.522 34.4517C35.522 34.9925 35.0832 35.4308 34.5419 35.4308C34.0006 35.4308 33.5618 34.9925 33.5618 34.4517C33.5618 33.911 34.0006 33.4727 34.5419 33.4727C35.0832 33.4727 35.522 33.911 35.522 34.4517Z" fill="#8B57C2"/>
<path d="M41.4026 34.4517C41.4026 34.9925 40.9638 35.4308 40.4225 35.4308C39.8812 35.4308 39.4424 34.9925 39.4424 34.4517C39.4424 33.911 39.8812 33.4727 40.4225 33.4727C40.9638 33.4727 41.4026 33.911 41.4026 34.4517Z" fill="#8B57C2"/>
<path d="M47.2831 34.4517C47.2831 34.9925 46.8443 35.4308 46.303 35.4308C45.7618 35.4308 45.3229 34.9925 45.3229 34.4517C45.3229 33.911 45.7618 33.4727 46.303 33.4727C46.8443 33.4727 47.2831 33.911 47.2831 34.4517Z" fill="#8B57C2"/>
<path d="M53.1637 34.4517C53.1637 34.9925 52.7249 35.4308 52.1836 35.4308C51.6423 35.4308 51.2035 34.9925 51.2035 34.4517C51.2035 33.911 51.6423 33.4727 52.1836 33.4727C52.7249 33.4727 53.1637 33.911 53.1637 34.4517Z" fill="#8B57C2"/>
<path d="M59.0443 34.4517C59.0443 34.9925 58.6055 35.4308 58.0642 35.4308C57.5229 35.4308 57.0841 34.9925 57.0841 34.4517C57.0841 33.911 57.5229 33.4727 58.0642 33.4727C58.6055 33.4727 59.0443 33.911 59.0443 34.4517Z" fill="#8B57C2"/>
<path d="M64.9248 34.4517C64.9248 34.9925 64.486 35.4308 63.9447 35.4308C63.4035 35.4308 62.9646 34.9925 62.9646 34.4517C62.9646 33.911 63.4035 33.4727 63.9447 33.4727C64.486 33.4727 64.9248 33.911 64.9248 34.4517Z" fill="#8B57C2"/>
<path d="M70.8054 34.4517C70.8054 34.9925 70.3666 35.4308 69.8253 35.4308C69.284 35.4308 68.8452 34.9925 68.8452 34.4517C68.8452 33.911 69.284 33.4727 69.8253 33.4727C70.3666 33.4727 70.8054 33.911 70.8054 34.4517Z" fill="#8B57C2"/>
<path d="M11.9997 40.3263C11.9997 40.867 11.5609 41.3054 11.0196 41.3054C10.4784 41.3054 10.0396 40.867 10.0396 40.3263C10.0396 39.7856 10.4784 39.3472 11.0196 39.3472C11.5609 39.3472 11.9997 39.7856 11.9997 40.3263Z" fill="#8B57C2"/>
<path d="M17.8803 40.3263C17.8803 40.867 17.4415 41.3054 16.9002 41.3054C16.3589 41.3054 15.9201 40.867 15.9201 40.3263C15.9201 39.7856 16.3589 39.3472 16.9002 39.3472C17.4415 39.3472 17.8803 39.7856 17.8803 40.3263Z" fill="#8B57C2"/>
<path d="M23.7609 40.3263C23.7609 40.867 23.3221 41.3054 22.7808 41.3054C22.2395 41.3054 21.8007 40.867 21.8007 40.3263C21.8007 39.7856 22.2395 39.3472 22.7808 39.3472C23.3221 39.3472 23.7609 39.7856 23.7609 40.3263Z" fill="#8B57C2"/>
<path d="M29.6414 40.3263C29.6414 40.867 29.2026 41.3054 28.6613 41.3054C28.1201 41.3054 27.6812 40.867 27.6812 40.3263C27.6812 39.7856 28.1201 39.3472 28.6613 39.3472C29.2026 39.3472 29.6414 39.7856 29.6414 40.3263Z" fill="#8B57C2"/>
<path d="M35.522 40.3263C35.522 40.867 35.0832 41.3054 34.5419 41.3054C34.0006 41.3054 33.5618 40.867 33.5618 40.3263C33.5618 39.7856 34.0006 39.3472 34.5419 39.3472C35.0832 39.3472 35.522 39.7856 35.522 40.3263Z" fill="#8B57C2"/>
<path d="M41.4026 40.3263C41.4026 40.867 40.9638 41.3054 40.4225 41.3054C39.8812 41.3054 39.4424 40.867 39.4424 40.3263C39.4424 39.7856 39.8812 39.3472 40.4225 39.3472C40.9638 39.3472 41.4026 39.7856 41.4026 40.3263Z" fill="#8B57C2"/>
<path d="M47.2831 40.3263C47.2831 40.867 46.8443 41.3054 46.303 41.3054C45.7618 41.3054 45.3229 40.867 45.3229 40.3263C45.3229 39.7856 45.7618 39.3472 46.303 39.3472C46.8443 39.3472 47.2831 39.7856 47.2831 40.3263Z" fill="#8B57C2"/>
<path d="M53.1637 40.3263C53.1637 40.867 52.7249 41.3054 52.1836 41.3054C51.6423 41.3054 51.2035 40.867 51.2035 40.3263C51.2035 39.7856 51.6423 39.3472 52.1836 39.3472C52.7249 39.3472 53.1637 39.7856 53.1637 40.3263Z" fill="#8B57C2"/>
<path d="M59.0443 40.3263C59.0443 40.867 58.6055 41.3054 58.0642 41.3054C57.5229 41.3054 57.0841 40.867 57.0841 40.3263C57.0841 39.7856 57.5229 39.3472 58.0642 39.3472C58.6055 39.3472 59.0443 39.7856 59.0443 40.3263Z" fill="#8B57C2"/>
<path d="M64.9248 40.3263C64.9248 40.867 64.486 41.3054 63.9447 41.3054C63.4035 41.3054 62.9646 40.867 62.9646 40.3263C62.9646 39.7856 63.4035 39.3472 63.9447 39.3472C64.486 39.3472 64.9248 39.7856 64.9248 40.3263Z" fill="#8B57C2"/>
<path d="M70.8054 40.3263C70.8054 40.867 70.3666 41.3054 69.8253 41.3054C69.284 41.3054 68.8452 40.867 68.8452 40.3263C68.8452 39.7856 69.284 39.3472 69.8253 39.3472C70.3666 39.3472 70.8054 39.7856 70.8054 40.3263Z" fill="#8B57C2"/>
<path d="M11.9997 46.2008C11.9997 46.7416 11.5609 47.1799 11.0196 47.1799C10.4784 47.1799 10.0396 46.7416 10.0396 46.2008C10.0396 45.6601 10.4784 45.2218 11.0196 45.2218C11.5609 45.2218 11.9997 45.6601 11.9997 46.2008Z" fill="#8B57C2"/>
<path d="M17.8803 46.2008C17.8803 46.7416 17.4415 47.1799 16.9002 47.1799C16.3589 47.1799 15.9201 46.7416 15.9201 46.2008C15.9201 45.6601 16.3589 45.2218 16.9002 45.2218C17.4415 45.2218 17.8803 45.6601 17.8803 46.2008Z" fill="#8B57C2"/>
<path d="M23.7609 46.2008C23.7609 46.7416 23.3221 47.1799 22.7808 47.1799C22.2395 47.1799 21.8007 46.7416 21.8007 46.2008C21.8007 45.6601 22.2395 45.2218 22.7808 45.2218C23.3221 45.2218 23.7609 45.6601 23.7609 46.2008Z" fill="#8B57C2"/>
<path d="M29.6414 46.2008C29.6414 46.7416 29.2026 47.1799 28.6613 47.1799C28.1201 47.1799 27.6812 46.7416 27.6812 46.2008C27.6812 45.6601 28.1201 45.2218 28.6613 45.2218C29.2026 45.2218 29.6414 45.6601 29.6414 46.2008Z" fill="#8B57C2"/>
<path d="M35.522 46.2008C35.522 46.7416 35.0832 47.1799 34.5419 47.1799C34.0006 47.1799 33.5618 46.7416 33.5618 46.2008C33.5618 45.6601 34.0006 45.2218 34.5419 45.2218C35.0832 45.2218 35.522 45.6601 35.522 46.2008Z" fill="#8B57C2"/>
<path d="M41.4026 46.2008C41.4026 46.7416 40.9638 47.1799 40.4225 47.1799C39.8812 47.1799 39.4424 46.7416 39.4424 46.2008C39.4424 45.6601 39.8812 45.2218 40.4225 45.2218C40.9638 45.2218 41.4026 45.6601 41.4026 46.2008Z" fill="#8B57C2"/>
<path d="M47.2831 46.2008C47.2831 46.7416 46.8443 47.1799 46.303 47.1799C45.7618 47.1799 45.3229 46.7416 45.3229 46.2008C45.3229 45.6601 45.7618 45.2218 46.303 45.2218C46.8443 45.2218 47.2831 45.6601 47.2831 46.2008Z" fill="#8B57C2"/>
<path d="M53.1637 46.2008C53.1637 46.7416 52.7249 47.1799 52.1836 47.1799C51.6423 47.1799 51.2035 46.7416 51.2035 46.2008C51.2035 45.6601 51.6423 45.2218 52.1836 45.2218C52.7249 45.2218 53.1637 45.6601 53.1637 46.2008Z" fill="#8B57C2"/>
<path d="M59.0443 46.2008C59.0443 46.7416 58.6055 47.1799 58.0642 47.1799C57.5229 47.1799 57.0841 46.7416 57.0841 46.2008C57.0841 45.6601 57.5229 45.2218 58.0642 45.2218C58.6055 45.2218 59.0443 45.6601 59.0443 46.2008Z" fill="#8B57C2"/>
<path d="M64.9248 46.2008C64.9248 46.7416 64.486 47.1799 63.9447 47.1799C63.4035 47.1799 62.9646 46.7416 62.9646 46.2008C62.9646 45.6601 63.4035 45.2218 63.9447 45.2218C64.486 45.2218 64.9248 45.6601 64.9248 46.2008Z" fill="#8B57C2"/>
<path d="M70.8054 46.2008C70.8054 46.7416 70.3666 47.1799 69.8253 47.1799C69.284 47.1799 68.8452 46.7416 68.8452 46.2008C68.8452 45.6601 69.284 45.2218 69.8253 45.2218C70.3666 45.2218 70.8054 45.6601 70.8054 46.2008Z" fill="#8B57C2"/>
<path d="M11.9997 52.0754C11.9997 52.6161 11.5609 53.0545 11.0196 53.0545C10.4784 53.0545 10.0396 52.6161 10.0396 52.0754C10.0396 51.5347 10.4784 51.0963 11.0196 51.0963C11.5609 51.0963 11.9997 51.5347 11.9997 52.0754Z" fill="#8B57C2"/>
<path d="M17.8803 52.0754C17.8803 52.6161 17.4415 53.0545 16.9002 53.0545C16.3589 53.0545 15.9201 52.6161 15.9201 52.0754C15.9201 51.5347 16.3589 51.0963 16.9002 51.0963C17.4415 51.0963 17.8803 51.5347 17.8803 52.0754Z" fill="#8B57C2"/>
<path d="M23.7609 52.0754C23.7609 52.6161 23.3221 53.0545 22.7808 53.0545C22.2395 53.0545 21.8007 52.6161 21.8007 52.0754C21.8007 51.5347 22.2395 51.0963 22.7808 51.0963C23.3221 51.0963 23.7609 51.5347 23.7609 52.0754Z" fill="#8B57C2"/>
<path d="M29.6414 52.0754C29.6414 52.6161 29.2026 53.0545 28.6613 53.0545C28.1201 53.0545 27.6812 52.6161 27.6812 52.0754C27.6812 51.5347 28.1201 51.0963 28.6613 51.0963C29.2026 51.0963 29.6414 51.5347 29.6414 52.0754Z" fill="#8B57C2"/>
<path d="M35.522 52.0754C35.522 52.6161 35.0832 53.0545 34.5419 53.0545C34.0006 53.0545 33.5618 52.6161 33.5618 52.0754C33.5618 51.5347 34.0006 51.0963 34.5419 51.0963C35.0832 51.0963 35.522 51.5347 35.522 52.0754Z" fill="#8B57C2"/>
<path d="M41.4026 52.0754C41.4026 52.6161 40.9638 53.0545 40.4225 53.0545C39.8812 53.0545 39.4424 52.6161 39.4424 52.0754C39.4424 51.5347 39.8812 51.0963 40.4225 51.0963C40.9638 51.0963 41.4026 51.5347 41.4026 52.0754Z" fill="#8B57C2"/>
<path d="M47.2831 52.0754C47.2831 52.6161 46.8443 53.0545 46.303 53.0545C45.7618 53.0545 45.3229 52.6161 45.3229 52.0754C45.3229 51.5347 45.7618 51.0963 46.303 51.0963C46.8443 51.0963 47.2831 51.5347 47.2831 52.0754Z" fill="#8B57C2"/>
<path d="M53.1637 52.0754C53.1637 52.6161 52.7249 53.0545 52.1836 53.0545C51.6423 53.0545 51.2035 52.6161 51.2035 52.0754C51.2035 51.5347 51.6423 51.0963 52.1836 51.0963C52.7249 51.0963 53.1637 51.5347 53.1637 52.0754Z" fill="#8B57C2"/>
<path d="M59.0443 52.0754C59.0443 52.6161 58.6055 53.0545 58.0642 53.0545C57.5229 53.0545 57.0841 52.6161 57.0841 52.0754C57.0841 51.5347 57.5229 51.0963 58.0642 51.0963C58.6055 51.0963 59.0443 51.5347 59.0443 52.0754Z" fill="#8B57C2"/>
<path d="M64.9248 52.0754C64.9248 52.6161 64.486 53.0545 63.9447 53.0545C63.4035 53.0545 62.9646 52.6161 62.9646 52.0754C62.9646 51.5347 63.4035 51.0963 63.9447 51.0963C64.486 51.0963 64.9248 51.5347 64.9248 52.0754Z" fill="#8B57C2"/>
<path d="M70.8054 52.0754C70.8054 52.6161 70.3666 53.0545 69.8253 53.0545C69.284 53.0545 68.8452 52.6161 68.8452 52.0754C68.8452 51.5347 69.284 51.0963 69.8253 51.0963C70.3666 51.0963 70.8054 51.5347 70.8054 52.0754Z" fill="#8B57C2"/>
<path d="M11.9997 57.9499C11.9997 58.4907 11.5609 58.929 11.0196 58.929C10.4784 58.929 10.0396 58.4907 10.0396 57.9499C10.0396 57.4092 10.4784 56.9709 11.0196 56.9709C11.5609 56.9709 11.9997 57.4092 11.9997 57.9499Z" fill="#8B57C2"/>
<path d="M17.8803 57.9499C17.8803 58.4907 17.4415 58.929 16.9002 58.929C16.3589 58.929 15.9201 58.4907 15.9201 57.9499C15.9201 57.4092 16.3589 56.9709 16.9002 56.9709C17.4415 56.9709 17.8803 57.4092 17.8803 57.9499Z" fill="#8B57C2"/>
<path d="M23.7609 57.9499C23.7609 58.4907 23.3221 58.929 22.7808 58.929C22.2395 58.929 21.8007 58.4907 21.8007 57.9499C21.8007 57.4092 22.2395 56.9709 22.7808 56.9709C23.3221 56.9709 23.7609 57.4092 23.7609 57.9499Z" fill="#8B57C2"/>
<path d="M29.6414 57.9499C29.6414 58.4907 29.2026 58.929 28.6613 58.929C28.1201 58.929 27.6812 58.4907 27.6812 57.9499C27.6812 57.4092 28.1201 56.9709 28.6613 56.9709C29.2026 56.9709 29.6414 57.4092 29.6414 57.9499Z" fill="#8B57C2"/>
<path d="M35.522 57.9499C35.522 58.4907 35.0832 58.929 34.5419 58.929C34.0006 58.929 33.5618 58.4907 33.5618 57.9499C33.5618 57.4092 34.0006 56.9709 34.5419 56.9709C35.0832 56.9709 35.522 57.4092 35.522 57.9499Z" fill="#8B57C2"/>
<path d="M41.4026 57.9499C41.4026 58.4907 40.9638 58.929 40.4225 58.929C39.8812 58.929 39.4424 58.4907 39.4424 57.9499C39.4424 57.4092 39.8812 56.9709 40.4225 56.9709C40.9638 56.9709 41.4026 57.4092 41.4026 57.9499Z" fill="#8B57C2"/>
<path d="M47.2831 57.9499C47.2831 58.4907 46.8443 58.929 46.303 58.929C45.7618 58.929 45.3229 58.4907 45.3229 57.9499C45.3229 57.4092 45.7618 56.9709 46.303 56.9709C46.8443 56.9709 47.2831 57.4092 47.2831 57.9499Z" fill="#8B57C2"/>
<path d="M53.1637 57.9499C53.1637 58.4907 52.7249 58.929 52.1836 58.929C51.6423 58.929 51.2035 58.4907 51.2035 57.9499C51.2035 57.4092 51.6423 56.9709 52.1836 56.9709C52.7249 56.9709 53.1637 57.4092 53.1637 57.9499Z" fill="#8B57C2"/>
<path d="M59.0443 57.9499C59.0443 58.4907 58.6055 58.929 58.0642 58.929C57.5229 58.929 57.0841 58.4907 57.0841 57.9499C57.0841 57.4092 57.5229 56.9709 58.0642 56.9709C58.6055 56.9709 59.0443 57.4092 59.0443 57.9499Z" fill="#8B57C2"/>
<path d="M64.9248 57.9499C64.9248 58.4907 64.486 58.929 63.9447 58.929C63.4035 58.929 62.9646 58.4907 62.9646 57.9499C62.9646 57.4092 63.4035 56.9709 63.9447 56.9709C64.486 56.9709 64.9248 57.4092 64.9248 57.9499Z" fill="#8B57C2"/>
<path d="M70.8054 57.9499C70.8054 58.4907 70.3666 58.929 69.8253 58.929C69.284 58.929 68.8452 58.4907 68.8452 57.9499C68.8452 57.4092 69.284 56.9709 69.8253 56.9709C70.3666 56.9709 70.8054 57.4092 70.8054 57.9499Z" fill="#8B57C2"/>
<path d="M11.9997 63.8245C11.9997 64.3652 11.5609 64.8036 11.0196 64.8036C10.4784 64.8036 10.0396 64.3652 10.0396 63.8245C10.0396 63.2838 10.4784 62.8454 11.0196 62.8454C11.5609 62.8454 11.9997 63.2838 11.9997 63.8245Z" fill="#8B57C2"/>
<path d="M17.8803 63.8245C17.8803 64.3652 17.4415 64.8036 16.9002 64.8036C16.3589 64.8036 15.9201 64.3652 15.9201 63.8245C15.9201 63.2838 16.3589 62.8454 16.9002 62.8454C17.4415 62.8454 17.8803 63.2838 17.8803 63.8245Z" fill="#8B57C2"/>
<path d="M23.7609 63.8245C23.7609 64.3652 23.3221 64.8036 22.7808 64.8036C22.2395 64.8036 21.8007 64.3652 21.8007 63.8245C21.8007 63.2838 22.2395 62.8454 22.7808 62.8454C23.3221 62.8454 23.7609 63.2838 23.7609 63.8245Z" fill="#8B57C2"/>
<path d="M29.6414 63.8245C29.6414 64.3652 29.2026 64.8036 28.6613 64.8036C28.1201 64.8036 27.6812 64.3652 27.6812 63.8245C27.6812 63.2838 28.1201 62.8454 28.6613 62.8454C29.2026 62.8454 29.6414 63.2838 29.6414 63.8245Z" fill="#8B57C2"/>
<path d="M35.522 63.8245C35.522 64.3652 35.0832 64.8036 34.5419 64.8036C34.0006 64.8036 33.5618 64.3652 33.5618 63.8245C33.5618 63.2838 34.0006 62.8454 34.5419 62.8454C35.0832 62.8454 35.522 63.2838 35.522 63.8245Z" fill="#8B57C2"/>
<path d="M41.4026 63.8245C41.4026 64.3652 40.9638 64.8036 40.4225 64.8036C39.8812 64.8036 39.4424 64.3652 39.4424 63.8245C39.4424 63.2838 39.8812 62.8454 40.4225 62.8454C40.9638 62.8454 41.4026 63.2838 41.4026 63.8245Z" fill="#8B57C2"/>
<path d="M47.2831 63.8245C47.2831 64.3652 46.8443 64.8036 46.303 64.8036C45.7618 64.8036 45.3229 64.3652 45.3229 63.8245C45.3229 63.2838 45.7618 62.8454 46.303 62.8454C46.8443 62.8454 47.2831 63.2838 47.2831 63.8245Z" fill="#8B57C2"/>
<path d="M53.1637 63.8245C53.1637 64.3652 52.7249 64.8036 52.1836 64.8036C51.6423 64.8036 51.2035 64.3652 51.2035 63.8245C51.2035 63.2838 51.6423 62.8454 52.1836 62.8454C52.7249 62.8454 53.1637 63.2838 53.1637 63.8245Z" fill="#8B57C2"/>
<path d="M59.0443 63.8245C59.0443 64.3652 58.6055 64.8036 58.0642 64.8036C57.5229 64.8036 57.0841 64.3652 57.0841 63.8245C57.0841 63.2838 57.5229 62.8454 58.0642 62.8454C58.6055 62.8454 59.0443 63.2838 59.0443 63.8245Z" fill="#8B57C2"/>
<path d="M64.9248 63.8245C64.9248 64.3652 64.486 64.8036 63.9447 64.8036C63.4035 64.8036 62.9646 64.3652 62.9646 63.8245C62.9646 63.2838 63.4035 62.8454 63.9447 62.8454C64.486 62.8454 64.9248 63.2838 64.9248 63.8245Z" fill="#8B57C2"/>
<path d="M70.8054 63.8245C70.8054 64.3652 70.3666 64.8036 69.8253 64.8036C69.284 64.8036 68.8452 64.3652 68.8452 63.8245C68.8452 63.2838 69.284 62.8454 69.8253 62.8454C70.3666 62.8454 70.8054 63.2838 70.8054 63.8245Z" fill="#8B57C2"/>
<path d="M11.9997 69.699C11.9997 70.2398 11.5609 70.6781 11.0196 70.6781C10.4784 70.6781 10.0396 70.2398 10.0396 69.699C10.0396 69.1583 10.4784 68.72 11.0196 68.72C11.5609 68.72 11.9997 69.1583 11.9997 69.699Z" fill="#8B57C2"/>
<path d="M17.8803 69.699C17.8803 70.2398 17.4415 70.6781 16.9002 70.6781C16.3589 70.6781 15.9201 70.2398 15.9201 69.699C15.9201 69.1583 16.3589 68.72 16.9002 68.72C17.4415 68.72 17.8803 69.1583 17.8803 69.699Z" fill="#8B57C2"/>
<path d="M23.7609 69.699C23.7609 70.2398 23.3221 70.6781 22.7808 70.6781C22.2395 70.6781 21.8007 70.2398 21.8007 69.699C21.8007 69.1583 22.2395 68.72 22.7808 68.72C23.3221 68.72 23.7609 69.1583 23.7609 69.699Z" fill="#8B57C2"/>
<path d="M29.6414 69.699C29.6414 70.2398 29.2026 70.6781 28.6613 70.6781C28.1201 70.6781 27.6812 70.2398 27.6812 69.699C27.6812 69.1583 28.1201 68.72 28.6613 68.72C29.2026 68.72 29.6414 69.1583 29.6414 69.699Z" fill="#8B57C2"/>
<path d="M35.522 69.699C35.522 70.2398 35.0832 70.6781 34.5419 70.6781C34.0006 70.6781 33.5618 70.2398 33.5618 69.699C33.5618 69.1583 34.0006 68.72 34.5419 68.72C35.0832 68.72 35.522 69.1583 35.522 69.699Z" fill="#8B57C2"/>
<path d="M41.4026 69.699C41.4026 70.2398 40.9638 70.6781 40.4225 70.6781C39.8812 70.6781 39.4424 70.2398 39.4424 69.699C39.4424 69.1583 39.8812 68.72 40.4225 68.72C40.9638 68.72 41.4026 69.1583 41.4026 69.699Z" fill="#8B57C2"/>
<path d="M47.2831 69.699C47.2831 70.2398 46.8443 70.6781 46.303 70.6781C45.7618 70.6781 45.3229 70.2398 45.3229 69.699C45.3229 69.1583 45.7618 68.72 46.303 68.72C46.8443 68.72 47.2831 69.1583 47.2831 69.699Z" fill="#8B57C2"/>
<path d="M53.1637 69.699C53.1637 70.2398 52.7249 70.6781 52.1836 70.6781C51.6423 70.6781 51.2035 70.2398 51.2035 69.699C51.2035 69.1583 51.6423 68.72 52.1836 68.72C52.7249 68.72 53.1637 69.1583 53.1637 69.699Z" fill="#8B57C2"/>
<path d="M59.0443 69.699C59.0443 70.2398 58.6055 70.6781 58.0642 70.6781C57.5229 70.6781 57.0841 70.2398 57.0841 69.699C57.0841 69.1583 57.5229 68.72 58.0642 68.72C58.6055 68.72 59.0443 69.1583 59.0443 69.699Z" fill="#8B57C2"/>
<path d="M64.9248 69.699C64.9248 70.2398 64.486 70.6781 63.9447 70.6781C63.4035 70.6781 62.9646 70.2398 62.9646 69.699C62.9646 69.1583 63.4035 68.72 63.9447 68.72C64.486 68.72 64.9248 69.1583 64.9248 69.699Z" fill="#8B57C2"/>
<path d="M70.8054 69.699C70.8054 70.2398 70.3666 70.6781 69.8253 70.6781C69.284 70.6781 68.8452 70.2398 68.8452 69.699C68.8452 69.1583 69.284 68.72 69.8253 68.72C70.3666 68.72 70.8054 69.1583 70.8054 69.699Z" fill="#8B57C2"/>
<path d="M11.9997 75.5736C11.9997 76.1143 11.5609 76.5527 11.0196 76.5527C10.4784 76.5527 10.0396 76.1143 10.0396 75.5736C10.0396 75.0329 10.4784 74.5945 11.0196 74.5945C11.5609 74.5945 11.9997 75.0329 11.9997 75.5736Z" fill="#8B57C2"/>
<path d="M17.8803 75.5736C17.8803 76.1143 17.4415 76.5527 16.9002 76.5527C16.3589 76.5527 15.9201 76.1143 15.9201 75.5736C15.9201 75.0329 16.3589 74.5945 16.9002 74.5945C17.4415 74.5945 17.8803 75.0329 17.8803 75.5736Z" fill="#8B57C2"/>
<path d="M23.7609 75.5736C23.7609 76.1143 23.3221 76.5527 22.7808 76.5527C22.2395 76.5527 21.8007 76.1143 21.8007 75.5736C21.8007 75.0329 22.2395 74.5945 22.7808 74.5945C23.3221 74.5945 23.7609 75.0329 23.7609 75.5736Z" fill="#8B57C2"/>
<path d="M29.6414 75.5736C29.6414 76.1143 29.2026 76.5527 28.6613 76.5527C28.1201 76.5527 27.6812 76.1143 27.6812 75.5736C27.6812 75.0329 28.1201 74.5945 28.6613 74.5945C29.2026 74.5945 29.6414 75.0329 29.6414 75.5736Z" fill="#8B57C2"/>
<path d="M35.522 75.5736C35.522 76.1143 35.0832 76.5527 34.5419 76.5527C34.0006 76.5527 33.5618 76.1143 33.5618 75.5736C33.5618 75.0329 34.0006 74.5945 34.5419 74.5945C35.0832 74.5945 35.522 75.0329 35.522 75.5736Z" fill="#8B57C2"/>
<path d="M41.4026 75.5736C41.4026 76.1143 40.9638 76.5527 40.4225 76.5527C39.8812 76.5527 39.4424 76.1143 39.4424 75.5736C39.4424 75.0329 39.8812 74.5945 40.4225 74.5945C40.9638 74.5945 41.4026 75.0329 41.4026 75.5736Z" fill="#8B57C2"/>
<path d="M47.2831 75.5736C47.2831 76.1143 46.8443 76.5527 46.303 76.5527C45.7618 76.5527 45.3229 76.1143 45.3229 75.5736C45.3229 75.0329 45.7618 74.5945 46.303 74.5945C46.8443 74.5945 47.2831 75.0329 47.2831 75.5736Z" fill="#8B57C2"/>
<path d="M53.1637 75.5736C53.1637 76.1143 52.7249 76.5527 52.1836 76.5527C51.6423 76.5527 51.2035 76.1143 51.2035 75.5736C51.2035 75.0329 51.6423 74.5945 52.1836 74.5945C52.7249 74.5945 53.1637 75.0329 53.1637 75.5736Z" fill="#8B57C2"/>
<path d="M59.0443 75.5736C59.0443 76.1143 58.6055 76.5527 58.0642 76.5527C57.5229 76.5527 57.0841 76.1143 57.0841 75.5736C57.0841 75.0329 57.5229 74.5945 58.0642 74.5945C58.6055 74.5945 59.0443 75.0329 59.0443 75.5736Z" fill="#8B57C2"/>
<path d="M64.9248 75.5736C64.9248 76.1143 64.486 76.5527 63.9447 76.5527C63.4035 76.5527 62.9646 76.1143 62.9646 75.5736C62.9646 75.0329 63.4035 74.5945 63.9447 74.5945C64.486 74.5945 64.9248 75.0329 64.9248 75.5736Z" fill="#8B57C2"/>
<path d="M70.8054 75.5736C70.8054 76.1143 70.3666 76.5527 69.8253 76.5527C69.284 76.5527 68.8452 76.1143 68.8452 75.5736C68.8452 75.0329 69.284 74.5945 69.8253 74.5945C70.3666 74.5945 70.8054 75.0329 70.8054 75.5736Z" fill="#8B57C2"/>
<path d="M11.9997 81.4481C11.9997 81.9889 11.5609 82.4272 11.0196 82.4272C10.4784 82.4272 10.0396 81.9889 10.0396 81.4481C10.0396 80.9074 10.4784 80.469 11.0196 80.469C11.5609 80.469 11.9997 80.9074 11.9997 81.4481Z" fill="#8B57C2"/>
<path d="M17.8803 81.4481C17.8803 81.9889 17.4415 82.4272 16.9002 82.4272C16.3589 82.4272 15.9201 81.9889 15.9201 81.4481C15.9201 80.9074 16.3589 80.469 16.9002 80.469C17.4415 80.469 17.8803 80.9074 17.8803 81.4481Z" fill="#8B57C2"/>
<path d="M23.7609 81.4481C23.7609 81.9889 23.3221 82.4272 22.7808 82.4272C22.2395 82.4272 21.8007 81.9889 21.8007 81.4481C21.8007 80.9074 22.2395 80.469 22.7808 80.469C23.3221 80.469 23.7609 80.9074 23.7609 81.4481Z" fill="#8B57C2"/>
<path d="M29.6414 81.4481C29.6414 81.9889 29.2026 82.4272 28.6613 82.4272C28.1201 82.4272 27.6812 81.9889 27.6812 81.4481C27.6812 80.9074 28.1201 80.469 28.6613 80.469C29.2026 80.469 29.6414 80.9074 29.6414 81.4481Z" fill="#8B57C2"/>
<path d="M35.522 81.4481C35.522 81.9889 35.0832 82.4272 34.5419 82.4272C34.0006 82.4272 33.5618 81.9889 33.5618 81.4481C33.5618 80.9074 34.0006 80.469 34.5419 80.469C35.0832 80.469 35.522 80.9074 35.522 81.4481Z" fill="#8B57C2"/>
<path d="M41.4026 81.4481C41.4026 81.9889 40.9638 82.4272 40.4225 82.4272C39.8812 82.4272 39.4424 81.9889 39.4424 81.4481C39.4424 80.9074 39.8812 80.469 40.4225 80.469C40.9638 80.469 41.4026 80.9074 41.4026 81.4481Z" fill="#8B57C2"/>
<path d="M47.2831 81.4481C47.2831 81.9889 46.8443 82.4272 46.303 82.4272C45.7618 82.4272 45.3229 81.9889 45.3229 81.4481C45.3229 80.9074 45.7618 80.469 46.303 80.469C46.8443 80.469 47.2831 80.9074 47.2831 81.4481Z" fill="#8B57C2"/>
<path d="M53.1637 81.4481C53.1637 81.9889 52.7249 82.4272 52.1836 82.4272C51.6423 82.4272 51.2035 81.9889 51.2035 81.4481C51.2035 80.9074 51.6423 80.469 52.1836 80.469C52.7249 80.469 53.1637 80.9074 53.1637 81.4481Z" fill="#8B57C2"/>
<path d="M59.0443 81.4481C59.0443 81.9889 58.6055 82.4272 58.0642 82.4272C57.5229 82.4272 57.0841 81.9889 57.0841 81.4481C57.0841 80.9074 57.5229 80.469 58.0642 80.469C58.6055 80.469 59.0443 80.9074 59.0443 81.4481Z" fill="#8B57C2"/>
<path d="M64.9248 81.4481C64.9248 81.9889 64.486 82.4272 63.9447 82.4272C63.4035 82.4272 62.9646 81.9889 62.9646 81.4481C62.9646 80.9074 63.4035 80.469 63.9447 80.469C64.486 80.469 64.9248 80.9074 64.9248 81.4481Z" fill="#8B57C2"/>
<path d="M70.8054 81.4481C70.8054 81.9889 70.3666 82.4272 69.8253 82.4272C69.284 82.4272 68.8452 81.9889 68.8452 81.4481C68.8452 80.9074 69.284 80.469 69.8253 80.469C70.3666 80.469 70.8054 80.9074 70.8054 81.4481Z" fill="#8B57C2"/>
<path d="M11.9997 87.3227C11.9997 87.8634 11.5609 88.3018 11.0196 88.3018C10.4784 88.3018 10.0396 87.8634 10.0396 87.3227C10.0396 86.782 10.4784 86.3436 11.0196 86.3436C11.5609 86.3436 11.9997 86.782 11.9997 87.3227Z" fill="#8B57C2"/>
<path d="M17.8803 87.3227C17.8803 87.8634 17.4415 88.3018 16.9002 88.3018C16.3589 88.3018 15.9201 87.8634 15.9201 87.3227C15.9201 86.782 16.3589 86.3436 16.9002 86.3436C17.4415 86.3436 17.8803 86.782 17.8803 87.3227Z" fill="#8B57C2"/>
<path d="M23.7609 87.3227C23.7609 87.8634 23.3221 88.3018 22.7808 88.3018C22.2395 88.3018 21.8007 87.8634 21.8007 87.3227C21.8007 86.782 22.2395 86.3436 22.7808 86.3436C23.3221 86.3436 23.7609 86.782 23.7609 87.3227Z" fill="#8B57C2"/>
<path d="M29.6414 87.3227C29.6414 87.8634 29.2026 88.3018 28.6613 88.3018C28.1201 88.3018 27.6812 87.8634 27.6812 87.3227C27.6812 86.782 28.1201 86.3436 28.6613 86.3436C29.2026 86.3436 29.6414 86.782 29.6414 87.3227Z" fill="#8B57C2"/>
<path d="M35.522 87.3227C35.522 87.8634 35.0832 88.3018 34.5419 88.3018C34.0006 88.3018 33.5618 87.8634 33.5618 87.3227C33.5618 86.782 34.0006 86.3436 34.5419 86.3436C35.0832 86.3436 35.522 86.782 35.522 87.3227Z" fill="#8B57C2"/>
<path d="M41.4026 87.3227C41.4026 87.8634 40.9638 88.3018 40.4225 88.3018C39.8812 88.3018 39.4424 87.8634 39.4424 87.3227C39.4424 86.782 39.8812 86.3436 40.4225 86.3436C40.9638 86.3436 41.4026 86.782 41.4026 87.3227Z" fill="#8B57C2"/>
<path d="M47.2831 87.3227C47.2831 87.8634 46.8443 88.3018 46.303 88.3018C45.7618 88.3018 45.3229 87.8634 45.3229 87.3227C45.3229 86.782 45.7618 86.3436 46.303 86.3436C46.8443 86.3436 47.2831 86.782 47.2831 87.3227Z" fill="#8B57C2"/>
<path d="M53.1637 87.3227C53.1637 87.8634 52.7249 88.3018 52.1836 88.3018C51.6423 88.3018 51.2035 87.8634 51.2035 87.3227C51.2035 86.782 51.6423 86.3436 52.1836 86.3436C52.7249 86.3436 53.1637 86.782 53.1637 87.3227Z" fill="#8B57C2"/>
<path d="M59.0443 87.3227C59.0443 87.8634 58.6055 88.3018 58.0642 88.3018C57.5229 88.3018 57.0841 87.8634 57.0841 87.3227C57.0841 86.782 57.5229 86.3436 58.0642 86.3436C58.6055 86.3436 59.0443 86.782 59.0443 87.3227Z" fill="#8B57C2"/>
<path d="M64.9248 87.3227C64.9248 87.8634 64.486 88.3018 63.9447 88.3018C63.4035 88.3018 62.9646 87.8634 62.9646 87.3227C62.9646 86.782 63.4035 86.3436 63.9447 86.3436C64.486 86.3436 64.9248 86.782 64.9248 87.3227Z" fill="#8B57C2"/>
<path d="M70.8054 87.3227C70.8054 87.8634 70.3666 88.3018 69.8253 88.3018C69.284 88.3018 68.8452 87.8634 68.8452 87.3227C68.8452 86.782 69.284 86.3436 69.8253 86.3436C70.3666 86.3436 70.8054 86.782 70.8054 87.3227Z" fill="#8B57C2"/>
<path d="M11.9997 93.1972C11.9997 93.738 11.5609 94.1763 11.0196 94.1763C10.4784 94.1763 10.0396 93.738 10.0396 93.1972C10.0396 92.6565 10.4784 92.2181 11.0196 92.2181C11.5609 92.2181 11.9997 92.6565 11.9997 93.1972Z" fill="#8B57C2"/>
<path d="M17.8803 93.1972C17.8803 93.738 17.4415 94.1763 16.9002 94.1763C16.3589 94.1763 15.9201 93.738 15.9201 93.1972C15.9201 92.6565 16.3589 92.2181 16.9002 92.2181C17.4415 92.2181 17.8803 92.6565 17.8803 93.1972Z" fill="#8B57C2"/>
<path d="M23.7609 93.1972C23.7609 93.738 23.3221 94.1763 22.7808 94.1763C22.2395 94.1763 21.8007 93.738 21.8007 93.1972C21.8007 92.6565 22.2395 92.2181 22.7808 92.2181C23.3221 92.2181 23.7609 92.6565 23.7609 93.1972Z" fill="#8B57C2"/>
<path d="M29.6414 93.1972C29.6414 93.738 29.2026 94.1763 28.6613 94.1763C28.1201 94.1763 27.6812 93.738 27.6812 93.1972C27.6812 92.6565 28.1201 92.2181 28.6613 92.2181C29.2026 92.2181 29.6414 92.6565 29.6414 93.1972Z" fill="#8B57C2"/>
<path d="M35.522 93.1972C35.522 93.738 35.0832 94.1763 34.5419 94.1763C34.0006 94.1763 33.5618 93.738 33.5618 93.1972C33.5618 92.6565 34.0006 92.2181 34.5419 92.2181C35.0832 92.2181 35.522 92.6565 35.522 93.1972Z" fill="#8B57C2"/>
<path d="M41.4026 93.1972C41.4026 93.738 40.9638 94.1763 40.4225 94.1763C39.8812 94.1763 39.4424 93.738 39.4424 93.1972C39.4424 92.6565 39.8812 92.2181 40.4225 92.2181C40.9638 92.2181 41.4026 92.6565 41.4026 93.1972Z" fill="#8B57C2"/>
<path d="M47.2831 93.1972C47.2831 93.738 46.8443 94.1763 46.303 94.1763C45.7618 94.1763 45.3229 93.738 45.3229 93.1972C45.3229 92.6565 45.7618 92.2181 46.303 92.2181C46.8443 92.2181 47.2831 92.6565 47.2831 93.1972Z" fill="#8B57C2"/>
<path d="M53.1637 93.1972C53.1637 93.738 52.7249 94.1763 52.1836 94.1763C51.6423 94.1763 51.2035 93.738 51.2035 93.1972C51.2035 92.6565 51.6423 92.2181 52.1836 92.2181C52.7249 92.2181 53.1637 92.6565 53.1637 93.1972Z" fill="#8B57C2"/>
<path d="M59.0443 93.1972C59.0443 93.738 58.6055 94.1763 58.0642 94.1763C57.5229 94.1763 57.0841 93.738 57.0841 93.1972C57.0841 92.6565 57.5229 92.2181 58.0642 92.2181C58.6055 92.2181 59.0443 92.6565 59.0443 93.1972Z" fill="#8B57C2"/>
<path d="M64.9248 93.1972C64.9248 93.738 64.486 94.1763 63.9447 94.1763C63.4035 94.1763 62.9646 93.738 62.9646 93.1972C62.9646 92.6565 63.4035 92.2181 63.9447 92.2181C64.486 92.2181 64.9248 92.6565 64.9248 93.1972Z" fill="#8B57C2"/>
<path d="M70.8054 93.1972C70.8054 93.738 70.3666 94.1763 69.8253 94.1763C69.284 94.1763 68.8452 93.738 68.8452 93.1972C68.8452 92.6565 69.284 92.2181 69.8253 92.2181C70.3666 92.2181 70.8054 92.6565 70.8054 93.1972Z" fill="#8B57C2"/>
<path d="M11.9997 99.0718C11.9997 99.6125 11.5609 100.051 11.0196 100.051C10.4784 100.051 10.0396 99.6125 10.0396 99.0718C10.0396 98.5311 10.4784 98.0927 11.0196 98.0927C11.5609 98.0927 11.9997 98.5311 11.9997 99.0718Z" fill="#8B57C2"/>
<path d="M17.8803 99.0718C17.8803 99.6125 17.4415 100.051 16.9002 100.051C16.3589 100.051 15.9201 99.6125 15.9201 99.0718C15.9201 98.5311 16.3589 98.0927 16.9002 98.0927C17.4415 98.0927 17.8803 98.5311 17.8803 99.0718Z" fill="#8B57C2"/>
<path d="M23.7609 99.0718C23.7609 99.6125 23.3221 100.051 22.7808 100.051C22.2395 100.051 21.8007 99.6125 21.8007 99.0718C21.8007 98.5311 22.2395 98.0927 22.7808 98.0927C23.3221 98.0927 23.7609 98.5311 23.7609 99.0718Z" fill="#8B57C2"/>
<path d="M29.6414 99.0718C29.6414 99.6125 29.2026 100.051 28.6613 100.051C28.1201 100.051 27.6812 99.6125 27.6812 99.0718C27.6812 98.5311 28.1201 98.0927 28.6613 98.0927C29.2026 98.0927 29.6414 98.5311 29.6414 99.0718Z" fill="#8B57C2"/>
<path d="M35.522 99.0718C35.522 99.6125 35.0832 100.051 34.5419 100.051C34.0006 100.051 33.5618 99.6125 33.5618 99.0718C33.5618 98.5311 34.0006 98.0927 34.5419 98.0927C35.0832 98.0927 35.522 98.5311 35.522 99.0718Z" fill="#8B57C2"/>
<path d="M41.4026 99.0718C41.4026 99.6125 40.9638 100.051 40.4225 100.051C39.8812 100.051 39.4424 99.6125 39.4424 99.0718C39.4424 98.5311 39.8812 98.0927 40.4225 98.0927C40.9638 98.0927 41.4026 98.5311 41.4026 99.0718Z" fill="#8B57C2"/>
<path d="M47.2831 99.0718C47.2831 99.6125 46.8443 100.051 46.303 100.051C45.7618 100.051 45.3229 99.6125 45.3229 99.0718C45.3229 98.5311 45.7618 98.0927 46.303 98.0927C46.8443 98.0927 47.2831 98.5311 47.2831 99.0718Z" fill="#8B57C2"/>
<path d="M53.1637 99.0718C53.1637 99.6125 52.7249 100.051 52.1836 100.051C51.6423 100.051 51.2035 99.6125 51.2035 99.0718C51.2035 98.5311 51.6423 98.0927 52.1836 98.0927C52.7249 98.0927 53.1637 98.5311 53.1637 99.0718Z" fill="#8B57C2"/>
<path d="M59.0443 99.0718C59.0443 99.6125 58.6055 100.051 58.0642 100.051C57.5229 100.051 57.0841 99.6125 57.0841 99.0718C57.0841 98.5311 57.5229 98.0927 58.0642 98.0927C58.6055 98.0927 59.0443 98.5311 59.0443 99.0718Z" fill="#8B57C2"/>
<path d="M64.9248 99.0718C64.9248 99.6125 64.486 100.051 63.9447 100.051C63.4035 100.051 62.9646 99.6125 62.9646 99.0718C62.9646 98.5311 63.4035 98.0927 63.9447 98.0927C64.486 98.0927 64.9248 98.5311 64.9248 99.0718Z" fill="#8B57C2"/>
<path d="M70.8054 99.0718C70.8054 99.6125 70.3666 100.051 69.8253 100.051C69.284 100.051 68.8452 99.6125 68.8452 99.0718C68.8452 98.5311 69.284 98.0927 69.8253 98.0927C70.3666 98.0927 70.8054 98.5311 70.8054 99.0718Z" fill="#8B57C2"/>
<path fill-rule="evenodd" clip-rule="evenodd" d="M75.2811 14.8849C83.1857 16.8227 90.9735 16.7137 98.6825 19.3234C109.973 23.1456 124.426 23.3398 130.52 33.5846C136.665 43.9151 133.937 58.2017 128.038 68.6744C122.563 78.3936 109.817 80.0907 100.701 86.52C91.778 92.813 86.1923 105.481 75.2811 105.883C64.358 106.285 57.7701 94.1766 48.4637 88.4436C38.0282 82.015 23.3195 81.0983 17.5202 70.3004C11.5144 59.118 14.3445 45.0673 18.7798 33.1743C23.0855 21.6288 30.0137 9.1583 41.7371 5.36345C53.0726 1.69415 63.7091 12.0481 75.2811 14.8849Z" fill="url(#paint1_linear_97_1454)"/>
<path fill-rule="evenodd" clip-rule="evenodd" d="M66.5259 21.6179C58.3053 23.2317 50.2062 23.141 42.1891 25.3143C30.4471 28.4974 15.4168 28.6591 9.07933 37.1909C2.68881 45.7942 5.52524 57.692 11.6604 66.4136C17.3541 74.5077 30.6099 75.921 40.0902 81.2753C49.3695 86.516 55.1785 97.0659 66.5259 97.4005C77.8855 97.7355 84.7368 87.6517 94.4151 82.8773C105.268 77.5236 120.564 76.7601 126.595 67.7677C132.841 58.4551 129.898 46.7537 125.285 36.8493C120.808 27.2342 113.603 16.8489 101.411 13.6885C89.622 10.6327 78.5604 19.2555 66.5259 21.6179Z" stroke="#8B57C2" stroke-width="3"/>
<defs>
<linearGradient id="paint0_linear_97_1454" x1="59.9547" y1="0.886719" x2="59.9547" y2="102.193" gradientUnits="userSpaceOnUse">
<stop stop-color="#9567B0"/>
<stop offset="1" stop-color="#DC8887"/>
</linearGradient>
<linearGradient id="paint1_linear_97_1454" x1="74.0453" y1="4.58594" x2="74.0453" y2="105.893" gradientUnits="userSpaceOnUse">
<stop stop-color="#9567B0"/>
<stop offset="1" stop-color="#DC8887"/>
</linearGradient>
</defs>
</svg>
