<svg width="31" height="30" viewBox="0 0 31 30" fill="none" xmlns="http://www.w3.org/2000/svg">
<path d="M11 7C11.1326 7 11.2598 7.05268 11.3536 7.14645C11.4473 7.24021 11.5 7.36739 11.5 7.5V8H19.5V7.5C19.5 7.36739 19.5527 7.24021 19.6464 7.14645C19.7402 7.05268 19.8674 7 20 7C20.1326 7 20.2598 7.05268 20.3536 7.14645C20.4473 7.24021 20.5 7.36739 20.5 7.5V8H21.5C22.0304 8 22.5391 8.21071 22.9142 8.58579C23.2893 8.96086 23.5 9.46957 23.5 10V21C23.5 21.5304 23.2893 22.0391 22.9142 22.4142C22.5391 22.7893 22.0304 23 21.5 23H9.5C8.96957 23 8.46086 22.7893 8.08579 22.4142C7.71071 22.0391 7.5 21.5304 7.5 21V10C7.5 9.46957 7.71071 8.96086 8.08579 8.58579C8.46086 8.21071 8.96957 8 9.5 8H10.5V7.5C10.5 7.36739 10.5527 7.24021 10.6464 7.14645C10.7402 7.05268 10.8674 7 11 7ZM8.5 11V21C8.5 21.2652 8.60536 21.5196 8.79289 21.7071C8.98043 21.8946 9.23478 22 9.5 22H21.5C21.7652 22 22.0196 21.8946 22.2071 21.7071C22.3946 21.5196 22.5 21.2652 22.5 21V11H8.5Z" fill="#8B57C2"/>
</svg>
