<svg width="31" height="30" viewBox="0 0 31 30" fill="none" xmlns="http://www.w3.org/2000/svg">
<path d="M24.2609 6.09562C24.3344 6.14697 24.3946 6.21642 24.4363 6.29784C24.478 6.37926 24.4999 6.47016 24.5 6.5625V15C24.5 15.1123 24.4678 15.2221 24.4075 15.3151C24.3472 15.4082 24.2617 15.4802 24.1618 15.522L24.1586 15.5231L24.1522 15.5265L24.1274 15.5366C23.9858 15.5955 23.8433 15.6518 23.6998 15.7054C23.4155 15.8123 23.0203 15.9563 22.5723 16.0991C21.6935 16.3826 20.5488 16.6875 19.6538 16.6875C18.7417 16.6875 17.9868 16.3725 17.3298 16.0969L17.2997 16.0856C16.6169 15.7987 16.0354 15.5625 15.3462 15.5625C14.5923 15.5625 13.5822 15.8212 12.7217 16.0991C12.3365 16.2248 11.9548 16.3617 11.5769 16.5098V23.4375C11.5769 23.5867 11.5202 23.7298 11.4192 23.8352C11.3182 23.9407 11.1813 24 11.0385 24C10.8957 24 10.7587 23.9407 10.6577 23.8352C10.5567 23.7298 10.5 23.5867 10.5 23.4375V6.5625C10.5 6.41332 10.5567 6.27024 10.6577 6.16475C10.7587 6.05926 10.8957 6 11.0385 6C11.1813 6 11.3182 6.05926 11.4192 6.16475C11.5202 6.27024 11.5769 6.41332 11.5769 6.5625V6.87975C11.8203 6.79088 12.1111 6.6885 12.4277 6.58725C13.3065 6.306 14.4523 6 15.3462 6C16.2508 6 16.9874 6.31163 17.6303 6.58388L17.6766 6.60413C18.3465 6.8865 18.9302 7.125 19.6538 7.125C20.4077 7.125 21.4178 6.86625 22.2783 6.58837C22.7685 6.42803 23.2531 6.24942 23.7311 6.05287L23.7515 6.045L23.7558 6.04275H23.7569M23.4231 7.37362C23.1862 7.46137 22.9062 7.5615 22.5982 7.6605C21.7258 7.944 20.5822 8.24887 19.6538 8.24887C18.6997 8.24887 17.9394 7.92712 17.2814 7.64813L17.2728 7.64475C16.5975 7.36125 16.0343 7.125 15.3462 7.125C14.6257 7.125 13.6166 7.38263 12.7454 7.66275C12.3524 7.78925 11.9627 7.92693 11.5769 8.07562V15.3127C11.8138 15.225 12.0938 15.1249 12.4018 15.0259C13.2742 14.7413 14.4178 14.4375 15.3462 14.4375C16.2583 14.4375 17.0132 14.7525 17.6702 15.0281L17.7003 15.0394C18.3831 15.3263 18.9646 15.5625 19.6538 15.5625C20.3732 15.5625 21.3834 15.3049 22.2546 15.0248C22.6476 14.8982 23.0373 14.7606 23.4231 14.6119V7.37475V7.37362Z" fill="#8B57C2"/>
</svg>
