<svg width="65" height="64" viewBox="0 0 65 64" fill="none" xmlns="http://www.w3.org/2000/svg">
<circle cx="32.5" cy="32" r="32" fill="#8B57C2"/>
<path d="M16.3085 44V40.96L23.7965 33.152C24.7352 32.1707 25.4285 31.264 25.8765 30.432C26.3245 29.6 26.5485 28.7467 26.5485 27.872C26.5485 26.784 26.2072 25.9627 25.5245 25.408C24.8418 24.8533 23.8498 24.576 22.5485 24.576C21.5032 24.576 20.5005 24.768 19.5405 25.152C18.5805 25.5147 17.6418 26.0907 16.7245 26.88L15.3805 23.808C16.2978 22.9973 17.4285 22.3467 18.7725 21.856C20.1378 21.3653 21.5672 21.12 23.0605 21.12C25.4925 21.12 27.3592 21.664 28.6605 22.752C29.9618 23.84 30.6125 25.3973 30.6125 27.424C30.6125 28.832 30.2818 30.176 29.6205 31.456C28.9592 32.7147 27.9352 34.0373 26.5485 35.424L20.3085 41.664V40.576H31.5085V44H16.3085ZM42.248 44.32C40.6907 44.32 39.1973 44.096 37.768 43.648C36.3387 43.1787 35.1653 42.5387 34.248 41.728L35.592 38.624C36.5947 39.392 37.6293 39.9573 38.696 40.32C39.784 40.6827 40.9253 40.864 42.12 40.864C43.5707 40.864 44.6693 40.576 45.416 40C46.1627 39.424 46.536 38.5813 46.536 37.472C46.536 36.4053 46.1627 35.6053 45.416 35.072C44.6907 34.5173 43.624 34.24 42.216 34.24H38.568V30.944H41.864C43.08 30.944 44.0507 30.6453 44.776 30.048C45.5013 29.4507 45.864 28.6293 45.864 27.584C45.864 26.6027 45.5227 25.856 44.84 25.344C44.1787 24.832 43.2187 24.576 41.96 24.576C39.6987 24.576 37.704 25.344 35.976 26.88L34.632 23.808C35.5493 22.9547 36.68 22.2933 38.024 21.824C39.3893 21.3547 40.8187 21.12 42.312 21.12C44.6587 21.12 46.4933 21.6533 47.816 22.72C49.16 23.7653 49.832 25.2267 49.832 27.104C49.832 28.448 49.448 29.6107 48.68 30.592C47.9333 31.552 46.8987 32.192 45.576 32.512V32.128C47.1333 32.384 48.3387 33.024 49.192 34.048C50.0667 35.0507 50.504 36.3093 50.504 37.824C50.504 39.8293 49.768 41.4187 48.296 42.592C46.824 43.744 44.808 44.32 42.248 44.32Z" fill="white"/>
</svg>
