<svg width="64" height="64" viewBox="0 0 64 64" fill="none" xmlns="http://www.w3.org/2000/svg">
<circle cx="32" cy="32" r="32" fill="#8B57C2"/>
<path d="M31.6543 44.32C30.0969 44.32 28.6036 44.096 27.1743 43.648C25.7449 43.1787 24.5716 42.5387 23.6543 41.728L24.9983 38.624C26.0009 39.392 27.0356 39.9573 28.1023 40.32C29.1903 40.6827 30.3316 40.864 31.5263 40.864C32.9769 40.864 34.0756 40.576 34.8223 40C35.5689 39.424 35.9423 38.5813 35.9423 37.472C35.9423 36.4053 35.5689 35.6053 34.8223 35.072C34.0969 34.5173 33.0303 34.24 31.6223 34.24H27.9743V30.944H31.2703C32.4863 30.944 33.4569 30.6453 34.1823 30.048C34.9076 29.4507 35.2703 28.6293 35.2703 27.584C35.2703 26.6027 34.9289 25.856 34.2463 25.344C33.5849 24.832 32.6249 24.576 31.3663 24.576C29.1049 24.576 27.1103 25.344 25.3823 26.88L24.0383 23.808C24.9556 22.9547 26.0863 22.2933 27.4303 21.824C28.7956 21.3547 30.2249 21.12 31.7183 21.12C34.0649 21.12 35.8996 21.6533 37.2223 22.72C38.5663 23.7653 39.2383 25.2267 39.2383 27.104C39.2383 28.448 38.8543 29.6107 38.0863 30.592C37.3396 31.552 36.3049 32.192 34.9823 32.512V32.128C36.5396 32.384 37.7449 33.024 38.5983 34.048C39.4729 35.0507 39.9103 36.3093 39.9103 37.824C39.9103 39.8293 39.1743 41.4187 37.7023 42.592C36.2303 43.744 34.2143 44.32 31.6543 44.32Z" fill="white"/>
</svg>
