<svg width="64" height="64" viewBox="0 0 64 64" fill="none" xmlns="http://www.w3.org/2000/svg">
<circle cx="32" cy="32" r="32" fill="#8B57C2"/>
<path d="M21.2165 44.32C20.0005 44.32 18.7952 44.096 17.6005 43.648C16.4058 43.1787 15.3818 42.5493 14.5285 41.76L15.9045 38.688C16.6938 39.4133 17.5472 39.9573 18.4645 40.32C19.3818 40.6827 20.3098 40.864 21.2485 40.864C23.1472 40.864 24.5978 40.2133 25.6005 38.912C26.6245 37.6107 27.1365 35.6693 27.1365 33.088V30.688H27.5205C27.3712 31.7547 27.0085 32.6827 26.4325 33.472C25.8565 34.2613 25.1312 34.8693 24.2565 35.296C23.4032 35.7013 22.4432 35.904 21.3765 35.904C20.0752 35.904 18.9018 35.5947 17.8565 34.976C16.8325 34.3573 16.0218 33.504 15.4245 32.416C14.8485 31.3067 14.5605 30.0587 14.5605 28.672C14.5605 27.2 14.8805 25.8987 15.5205 24.768C16.1818 23.6373 17.0778 22.752 18.2085 22.112C19.3392 21.4507 20.6405 21.12 22.1125 21.12C24.9712 21.12 27.1685 22.1013 28.7045 24.064C30.2618 26.0053 31.0405 28.7573 31.0405 32.32C31.0405 34.8587 30.6458 37.024 29.8565 38.816C29.0885 40.608 27.9685 41.9733 26.4965 42.912C25.0245 43.8507 23.2645 44.32 21.2165 44.32ZM22.3685 32.64C23.1578 32.64 23.8512 32.4693 24.4485 32.128C25.0458 31.7867 25.5152 31.3067 25.8565 30.688C26.1978 30.048 26.3685 29.3227 26.3685 28.512C26.3685 27.68 26.1978 26.9547 25.8565 26.336C25.5152 25.7173 25.0458 25.2373 24.4485 24.896C23.8512 24.5333 23.1578 24.352 22.3685 24.352C21.5792 24.352 20.8858 24.5333 20.2885 24.896C19.6912 25.2373 19.2218 25.7173 18.8805 26.336C18.5605 26.9547 18.4005 27.68 18.4005 28.512C18.4005 29.3227 18.5605 30.048 18.8805 30.688C19.2218 31.3067 19.6912 31.7867 20.2885 32.128C20.8858 32.4693 21.5792 32.64 22.3685 32.64ZM34.996 44V40.96L42.484 33.152C43.4227 32.1707 44.116 31.264 44.564 30.432C45.012 29.6 45.236 28.7467 45.236 27.872C45.236 26.784 44.8947 25.9627 44.212 25.408C43.5293 24.8533 42.5373 24.576 41.236 24.576C40.1907 24.576 39.188 24.768 38.228 25.152C37.268 25.5147 36.3293 26.0907 35.412 26.88L34.068 23.808C34.9853 22.9973 36.116 22.3467 37.46 21.856C38.8253 21.3653 40.2547 21.12 41.748 21.12C44.18 21.12 46.0467 21.664 47.348 22.752C48.6493 23.84 49.3 25.3973 49.3 27.424C49.3 28.832 48.9693 30.176 48.308 31.456C47.6467 32.7147 46.6227 34.0373 45.236 35.424L38.996 41.664V40.576H50.196V44H34.996Z" fill="white"/>
</svg>
