<svg width="290" height="565" fill="none" xmlns="http://www.w3.org/2000/svg">
  <path fill-rule="evenodd" clip-rule="evenodd" d="M564 282.5C564 437.968 437.968 564 282.5 564 127.032 564 1 437.968 1 282.5 1 127.032 127.032 1 282.5 1 437.968 1 564 127.032 564 282.5Zm1 0C565 438.52 438.52 565 282.5 565 126.48 565 0 438.52 0 282.5 0 126.48 126.48 0 282.5 0 438.52 0 565 126.48 565 282.5Zm-160.018-.256c0 67.504-54.723 122.227-122.226 122.227-67.504 0-122.227-54.723-122.227-122.227 0-67.503 54.723-122.226 122.227-122.226 67.503 0 122.226 54.723 122.226 122.226Zm1 0c0 68.056-55.17 123.227-123.226 123.227S159.529 350.3 159.529 282.244c0-68.056 55.171-123.226 123.227-123.226 68.056 0 123.226 55.17 123.226 123.226ZM282.5 508.267c124.688 0 225.767-101.079 225.767-225.767S407.188 56.733 282.5 56.733 56.733 157.812 56.733 282.5 157.812 508.267 282.5 508.267Zm0 1c125.24 0 226.767-101.527 226.767-226.767S407.74 55.733 282.5 55.733 55.733 157.26 55.733 282.5 157.26 509.267 282.5 509.267ZM447.421 282.5c0 91.083-73.838 164.921-164.921 164.921S117.579 373.583 117.579 282.5 191.417 117.579 282.5 117.579 447.421 191.417 447.421 282.5Zm1 0c0 91.636-74.286 165.921-165.921 165.921-91.636 0-165.921-74.285-165.921-165.921S190.864 116.579 282.5 116.579c91.635 0 165.921 74.285 165.921 165.921Z" fill="#373737"/>
</svg>
