<svg width="84" height="34" viewBox="0 0 84 34" fill="none" xmlns="http://www.w3.org/2000/svg">
<g clip-path="url(#clip0_42_1017)">
<mask id="mask0_42_1017" style="mask-type:luminance" maskUnits="userSpaceOnUse" x="0" y="0" width="84" height="34">
<path d="M84 0H0V34H84V0Z" fill="white"/>
</mask>
<g mask="url(#mask0_42_1017)">
<path d="M7.92726 0.000709598C9.98186 -0.0264598 11.9671 0.727497 13.4647 2.10378V6.16123C12.7928 3.78232 10.641 2.1253 7.92726 2.1253C4.64754 2.1253 2.17179 4.54726 2.17179 7.75568C2.17179 10.9641 4.64754 13.386 7.92726 13.386C10.425 13.386 12.4448 11.9833 13.2707 9.90175H5.75545V7.76936H13.4647V13.3997C11.9671 14.776 9.98186 15.5299 7.92726 15.5028C3.40967 15.5028 0 12.177 0 7.74785C0 3.31867 3.40967 0.000709598 7.92726 0.000709598Z" fill="white"/>
<path d="M15.4205 0.311859H27.1474V2.43645H17.5843V6.68563H27.1394V8.80434H17.5843V13.0535H27.1394V15.1781H15.4205V0.311859Z" fill="white"/>
<path d="M29.1031 0.311859H33.6647L40.484 15.1801V0.311859H42.6559V15.1801H38.0943L31.275 0.311859V15.1801H29.1031V0.311859Z" fill="white"/>
<path d="M44.182 13.0594H49.7216V2.43645H44.182V0.311859H57.4306V2.43645H51.8874V13.0594H57.4245V15.184H44.182V13.0594Z" fill="white"/>
<path d="M58.5104 8.21744V0.313818H60.6819V8.2605C60.6819 11.2772 62.9858 13.4859 66.0696 13.4859C69.1093 13.4859 71.5429 11.2772 71.5429 8.2605V0.311859H73.7148V8.21744C73.7148 12.4021 70.3273 15.6105 66.0696 15.6105C65.0729 15.6244 64.0839 15.4428 63.1603 15.0762C62.2371 14.7096 61.3979 14.1656 60.6932 13.4763C59.9885 12.787 59.432 11.9665 59.0572 11.0632C58.6824 10.16 58.4963 9.19226 58.5104 8.21744Z" fill="white"/>
<path d="M74.6929 14.1432V10.254C74.9086 12.0831 76.7986 13.3039 78.5783 13.3039C79.8581 13.3039 81.2062 12.6016 81.2062 11.1989C81.2062 8.20372 74.6909 9.0332 74.6909 4.37908C74.6909 1.68126 76.8406 0.0868378 79.4684 0.0868378C80.688 0.0774985 81.8778 0.458057 82.8559 1.17065V5.08335C82.656 3.36372 81.2284 2.21534 79.4902 2.21534C78.2084 2.21534 76.8624 2.80224 76.8624 4.25581C76.8624 7.38594 83.3781 6.78339 83.3781 11.2674C83.3781 13.9436 81.1621 15.4324 78.6006 15.4324C77.1879 15.4383 75.8132 14.9848 74.6929 14.1432Z" fill="white"/>
<path d="M76.3887 19.1084H51.7872C47.5836 19.1084 44.1759 22.442 44.1759 26.5542C44.1759 30.6665 47.5836 34.0001 51.7872 34.0001H76.3887C80.5923 34.0001 84 30.6665 84 26.5542C84 22.442 80.5923 19.1084 76.3887 19.1084Z" fill="#FF3900"/>
<path d="M49.1113 27.4659V27.4033H49.9812V27.4659C49.9812 27.9041 50.5555 28.1154 51.7254 28.1154C52.7573 28.1154 53.3069 27.9197 53.3069 27.5539V27.4913C53.3069 27.2018 53.0093 27.0785 52.1652 26.9905L51.1314 26.8848C49.8552 26.7538 49.2894 26.4016 49.2894 25.6973V25.6093C49.2894 24.8013 50.1876 24.3181 51.6891 24.3181C53.2451 24.3181 54.1711 24.8444 54.1711 25.7247V25.7854H53.317V25.7247C53.317 25.3021 52.7593 25.0733 51.6531 25.0733C50.7093 25.0733 50.1714 25.2689 50.1714 25.5917V25.6543C50.1714 25.9438 50.4412 26.0847 51.1334 26.1473L52.1834 26.2431C53.5831 26.3742 54.1828 26.744 54.1828 27.4737V27.5618C54.1828 28.3795 53.239 28.8803 51.6931 28.8803C50.0894 28.8803 49.1113 28.3443 49.1113 27.4659Z" fill="white"/>
<path d="M60.7045 26.5249V26.6658C60.7045 28.0098 59.6707 28.8804 58.0525 28.8804C57.4374 28.8968 56.8381 28.6875 56.3729 28.2934V30.2635H55.509V24.4238H56.3086L56.345 24.9246C56.8179 24.5229 57.4265 24.3068 58.0525 24.3181C59.6707 24.3181 60.7045 25.1789 60.7045 26.5249ZM59.8144 26.5249C59.8144 25.6269 59.1404 25.0909 58.0448 25.0909C57.3348 25.0909 56.7048 25.355 56.3729 25.7776V27.4131C56.7048 27.8337 57.3348 28.1076 58.0448 28.1076C59.1404 28.1076 59.8144 27.5617 59.8144 26.6658V26.5249Z" fill="white"/>
<path d="M67.5153 28.0274V28.7747H66.9156C66.3155 28.7747 65.9157 28.5458 65.7655 28.133C65.2898 28.6436 64.6258 28.8804 63.718 28.8804C62.4321 28.8804 61.7181 28.4225 61.7181 27.6048C61.7181 26.9103 62.2662 26.4721 63.3077 26.3665L65.7077 26.12C65.6718 25.4607 65.1415 25.1183 64.1517 25.1183C63.1999 25.1183 62.5981 25.4607 62.5981 25.9889V26.0202H61.744V25.985C61.744 24.9814 62.7059 24.3142 64.1618 24.3142C65.6795 24.3142 66.5615 25.0087 66.5615 26.1865V27.5402C66.5615 27.8474 66.7614 28.0235 67.1176 28.0235L67.5153 28.0274ZM65.7158 27.2722V26.8027L63.5039 27.0297C62.876 27.0922 62.5799 27.2762 62.5799 27.6009C62.5799 27.9257 62.966 28.1291 63.7119 28.1291C64.6759 28.133 65.3956 27.8161 65.7098 27.2722H65.7158Z" fill="white"/>
<path d="M67.9799 26.6912V26.5327C67.9799 25.1633 69.0036 24.3181 70.6315 24.3181C72.1052 24.3181 73.183 25.1007 73.183 26.1903V26.2256H72.2933V26.1903C72.2933 25.5486 71.6012 25.0909 70.6315 25.0909C69.5254 25.0909 68.8695 25.6269 68.8695 26.5425V26.6833C68.8695 27.5696 69.5254 28.1075 70.6315 28.1075C71.6092 28.1075 72.2933 27.6498 72.2933 27.0159V26.9807H73.1794V27.0159C73.1794 28.1154 72.1375 28.8803 70.6275 28.8803C69.0177 28.8803 67.9799 28.0274 67.9799 26.6912Z" fill="white"/>
<path d="M79.1906 26.8769H74.9029C74.957 27.6399 75.6048 28.1075 76.6285 28.1075C77.5808 28.1075 78.2286 27.7632 78.2645 27.2545H79.1906C79.0904 28.2738 78.1385 28.8802 76.6285 28.8802C75.0289 28.8802 74.0048 28.037 74.0048 26.7009V26.5052C74.0048 25.1612 75.0208 24.3083 76.6285 24.3083C78.2367 24.3083 79.1906 25.126 79.1906 26.47V26.8769ZM74.9207 26.1726H78.2726C78.1664 25.4958 77.5626 25.0908 76.6285 25.0908C75.6949 25.0908 75.0467 25.4958 74.9207 26.1726Z" fill="white"/>
<path d="M46.0691 25.1648C46.0049 25.1657 45.9407 25.17 45.8765 25.1697C45.6786 25.1684 45.4815 25.1616 45.2845 25.1494C45.0878 25.1372 44.8911 25.1194 44.6952 25.0971C44.4994 25.0748 44.3043 25.0479 44.1097 25.0165C43.915 24.9851 43.7208 24.9495 43.5273 24.9101C43.3339 24.8706 43.1412 24.8274 42.949 24.7809C42.7568 24.7343 42.5654 24.6846 42.3752 24.632C42.1845 24.5794 41.9943 24.5241 41.8053 24.4665C41.6167 24.4089 41.4289 24.3491 41.2416 24.2875C40.8676 24.1642 40.494 24.033 40.1211 23.8987C39.7481 23.7643 39.3754 23.6266 39.0025 23.4889C38.6296 23.3513 38.2565 23.2137 37.8826 23.0805C37.5087 22.9472 37.1342 22.8178 36.7583 22.6966C36.5702 22.636 36.3819 22.5773 36.1932 22.5212C36.0044 22.4651 35.8152 22.412 35.6256 22.3613C35.436 22.3106 35.2461 22.2628 35.0554 22.2186C34.8648 22.1743 34.6732 22.1331 34.4815 22.0961C34.2897 22.0592 34.0973 22.0263 33.9042 21.9977C33.7112 21.9691 33.5177 21.945 33.3232 21.9257C33.1288 21.9064 32.9338 21.8923 32.7378 21.8833C32.5417 21.8743 32.3449 21.8706 32.1472 21.8728C31.9436 21.875 31.7403 21.8842 31.5374 21.8993C31.3345 21.9143 31.1317 21.9356 30.9302 21.9633C30.7288 21.9909 30.528 22.0248 30.3288 22.0648C30.1295 22.1048 29.9318 22.151 29.7357 22.2032C29.5394 22.2553 29.3451 22.3132 29.1527 22.3773C29.1107 22.3913 29.07 22.4089 29.0282 22.4234C29.8051 24.8406 31.8945 27.3437 35.6294 30.4143C36.9704 31.5167 38.1417 32.4186 38.2325 32.4186C38.6746 32.4186 42.1082 29.5974 43.8516 27.8015C44.7272 26.9001 45.4654 26.0188 46.0691 25.1648Z" fill="#FECB00"/>
<path d="M33.2589 15.4188C32.379 15.4261 31.5205 15.6165 30.8754 16.0069C29.2093 17.0154 28.6479 18.1074 28.674 20.2887C28.6825 21.001 28.7985 21.7086 29.0283 22.4235C29.0701 22.4089 29.1108 22.3913 29.1528 22.3773C29.3452 22.3132 29.5395 22.2554 29.7358 22.2032C29.932 22.1511 30.1297 22.1048 30.3289 22.0648C30.5282 22.0248 30.7288 21.991 30.9303 21.9633C31.1318 21.9356 31.3346 21.9144 31.5376 21.8993C31.7404 21.8842 31.9437 21.8752 32.1473 21.8729C32.345 21.8706 32.5419 21.8744 32.7379 21.8833C32.9339 21.8923 33.1289 21.9065 33.3234 21.9258C33.5178 21.945 33.7113 21.9692 33.9044 21.9977C34.0974 22.0263 34.2898 22.0593 34.4815 22.0962C34.6733 22.1331 34.8649 22.1743 35.0555 22.2186C35.2461 22.2629 35.4361 22.3106 35.6257 22.3613C35.8153 22.412 36.0046 22.4651 36.1933 22.5213C36.382 22.5774 36.5704 22.636 36.7584 22.6966C37.1344 22.8178 37.5088 22.9472 37.8827 23.0805C38.2566 23.2138 38.6297 23.3513 39.0026 23.489C39.3755 23.6267 39.7482 23.7644 40.1212 23.8987C40.4941 24.033 40.8676 24.1643 41.2416 24.2875C41.429 24.3491 41.6168 24.4089 41.8054 24.4665C41.9944 24.5241 42.1846 24.5795 42.3752 24.632C42.5654 24.6846 42.7568 24.7344 42.9491 24.7809C43.1409 24.8274 43.3339 24.8706 43.5274 24.9101C43.7208 24.9495 43.9151 24.9851 44.1097 25.0165C44.3044 25.0479 44.4994 25.0748 44.6953 25.0971C44.8912 25.1194 45.0878 25.1372 45.2845 25.1494C45.4816 25.1616 45.6787 25.1686 45.8766 25.1697C45.9408 25.17 46.005 25.1658 46.0692 25.1648C48.5532 21.6523 48.7317 18.6027 46.4815 16.5256C45.7166 15.8194 45.1161 15.5895 43.7495 15.4803C41.614 15.3097 40.2347 15.9095 39.1903 17.4631C38.3586 18.7004 38.0919 18.8019 37.8227 17.9848C37.7186 17.6688 37.194 17.0048 36.6568 16.509C35.8767 15.7888 34.5448 15.408 33.2589 15.4188Z" fill="#0068C2"/>
<path opacity="0.217903" d="M40.6313 30.0021C44.8289 25.7027 46.4152 23.0356 46.4205 20.2678C46.4241 18.0701 45.7255 16.8397 44.0317 16.064L42.6643 15.4376L44.0899 15.591C46.7117 15.8731 48.3739 18.3593 47.8828 21.2639C47.5125 23.4541 46.0808 25.5838 42.9522 28.5998C39.3282 32.0932 37.5278 33.181 40.6313 30.0021ZM36.523 18.2894C35.8403 17.0971 35.2675 16.5481 34.2347 16.0964C32.8947 15.5102 32.8838 15.4936 33.8379 15.4881C35.6665 15.4774 38.4333 17.868 38.1727 19.2336C37.9952 20.1643 37.4024 19.825 36.523 18.2894Z" fill="white"/>
<path opacity="0.367623" d="M32.2259 16.8682C31.8249 16.8658 31.3964 17.1107 30.8761 17.612C29.4235 18.8739 30.2962 23.8893 30.9446 20.7017C31.0645 20.176 31.8597 19.4448 32.3747 19.0779C33.5662 18.2291 33.77 17.9253 33.1421 17.3204C32.8328 17.0223 32.5377 16.8703 32.2259 16.8682ZM41.9435 16.9377C41.3748 16.9341 40.7739 17.3484 40.3677 18.1054C39.7278 19.2978 40.0884 19.3585 41.0255 19.3585C41.4649 19.3585 41.8918 19.0129 42.3962 18.5907C43.2471 17.8784 43.2749 17.7857 42.7778 17.2988C42.5303 17.0564 42.2411 16.9397 41.9435 16.9377Z" fill="white"/>
</g>
</g>
<defs>
<clipPath id="clip0_42_1017">
<rect width="84" height="34" fill="white"/>
</clipPath>
</defs>
</svg>
