<svg width="92" height="42" viewBox="0 0 92 42" fill="none" xmlns="http://www.w3.org/2000/svg">
<g clip-path="url(#clip0_52_1158)" filter="url(#filter0_d_52_1158)">
<mask id="mask0_52_1158" style="mask-type:luminance" maskUnits="userSpaceOnUse" x="4" y="0" width="84" height="34">
<path d="M88 0H4V34H88V0Z" fill="white"/>
</mask>
<g mask="url(#mask0_52_1158)">
<path d="M11.9273 0.000709598C13.9819 -0.0264598 15.9671 0.727497 17.4647 2.10378V6.16123C16.7928 3.78232 14.641 2.1253 11.9273 2.1253C8.64754 2.1253 6.17179 4.54726 6.17179 7.75568C6.17179 10.9641 8.64754 13.386 11.9273 13.386C14.425 13.386 16.4448 11.9833 17.2707 9.90175H9.75545V7.76936H17.4647V13.3997C15.9671 14.776 13.9819 15.5299 11.9273 15.5028C7.40967 15.5028 4 12.177 4 7.74785C4 3.31867 7.40967 0.000709598 11.9273 0.000709598Z" fill="white"/>
<path d="M19.4204 0.3125H31.1473V2.43709H21.5842V6.68627H31.1393V8.80498H21.5842V13.0542H31.1393V15.1788H19.4204V0.3125Z" fill="white"/>
<path d="M33.103 0.3125H37.6646L44.4839 15.1807V0.3125H46.6557V15.1807H42.0942L35.2748 0.3125V15.1807H33.103V0.3125Z" fill="white"/>
<path d="M48.1821 13.06H53.7217V2.43709H48.1821V0.3125H61.4307V2.43709H55.8875V13.06H61.4246V15.1846H48.1821V13.06Z" fill="white"/>
<path d="M62.5105 8.21809V0.314459H64.682V8.26114C64.682 11.2778 66.9859 13.4865 70.0697 13.4865C73.1095 13.4865 75.543 11.2778 75.543 8.26114V0.3125H77.7149V8.21809C77.7149 12.4027 74.3275 15.6111 70.0697 15.6111C69.073 15.6251 68.084 15.4434 67.1604 15.0768C66.2372 14.7103 65.398 14.1662 64.6933 13.477C63.9886 12.7877 63.4321 11.9671 63.0573 11.0638C62.6826 10.1606 62.4964 9.1929 62.5105 8.21809Z" fill="white"/>
<path d="M78.6929 14.1424V10.2532C78.9086 12.0824 80.7986 13.3031 82.5783 13.3031C83.8581 13.3031 85.2062 12.6008 85.2062 11.1982C85.2062 8.20299 78.6909 9.03247 78.6909 4.37834C78.6909 1.68053 80.8406 0.0861054 83.4684 0.0861054C84.688 0.0767661 85.8778 0.457325 86.8559 1.16992V5.08262C86.656 3.36298 85.2284 2.21461 83.4902 2.21461C82.2084 2.21461 80.8624 2.80151 80.8624 4.25507C80.8624 7.38521 87.3781 6.78266 87.3781 11.2666C87.3781 13.9429 85.1621 15.4317 82.6006 15.4317C81.1879 15.4376 79.8132 14.984 78.6929 14.1424Z" fill="white"/>
<path d="M80.3886 19.1074H55.7871C51.5834 19.1074 48.1758 22.441 48.1758 26.5533C48.1758 30.6655 51.5834 33.9991 55.7871 33.9991H80.3886C84.5922 33.9991 87.9999 30.6655 87.9999 26.5533C87.9999 22.441 84.5922 19.1074 80.3886 19.1074Z" fill="#FF3900"/>
<path d="M53.1113 27.4661V27.4035H53.9812V27.4661C53.9812 27.9043 54.5555 28.1156 55.7254 28.1156C56.7573 28.1156 57.3069 27.92 57.3069 27.5542V27.4915C57.3069 27.202 57.0093 27.0788 56.1652 26.9907L55.1314 26.8851C53.8552 26.754 53.2894 26.4018 53.2894 25.6976V25.6096C53.2894 24.8016 54.1876 24.3184 55.6891 24.3184C57.2451 24.3184 58.1711 24.8446 58.1711 25.725V25.7856H57.317V25.725C57.317 25.3024 56.7593 25.0735 55.6531 25.0735C54.7093 25.0735 54.1714 25.2691 54.1714 25.5919V25.6546C54.1714 25.9441 54.4412 26.0849 55.1334 26.1476L56.1834 26.2434C57.5831 26.3745 58.1828 26.7442 58.1828 27.474V27.562C58.1828 28.3797 57.239 28.8806 55.6931 28.8806C54.0894 28.8806 53.1113 28.3445 53.1113 27.4661Z" fill="white"/>
<path d="M64.7045 26.5236V26.6645C64.7045 28.0084 63.6707 28.879 62.0525 28.879C61.4374 28.8955 60.8381 28.6861 60.3729 28.2921V30.2622H59.509V24.4225H60.3086L60.345 24.9233C60.8179 24.5216 61.4265 24.3055 62.0525 24.3168C63.6707 24.3168 64.7045 25.1776 64.7045 26.5236ZM63.8144 26.5236C63.8144 25.6256 63.1404 25.0896 62.0448 25.0896C61.3348 25.0896 60.7048 25.3537 60.3729 25.7763V27.4118C60.7048 27.8324 61.3348 28.1062 62.0448 28.1062C63.1404 28.1062 63.8144 27.5604 63.8144 26.6645V26.5236Z" fill="white"/>
<path d="M71.5155 28.0276V28.7749H70.9158C70.3156 28.7749 69.9158 28.546 69.7656 28.1332C69.2899 28.6438 68.626 28.8806 67.7181 28.8806C66.4323 28.8806 65.7183 28.4228 65.7183 27.605C65.7183 26.9105 66.2663 26.4723 67.3078 26.3667L69.7079 26.1202C69.6719 25.4609 69.1417 25.1185 68.1518 25.1185C67.2 25.1185 66.5982 25.4609 66.5982 25.9891V26.0204H65.7441V25.9852C65.7441 24.9816 66.7061 24.3145 68.1619 24.3145C69.6796 24.3145 70.5616 25.009 70.5616 26.1867V27.5405C70.5616 27.8476 70.7615 28.0237 71.1177 28.0237L71.5155 28.0276ZM69.7159 27.2725V26.8029L67.5041 27.0299C66.8761 27.0925 66.5801 27.2764 66.5801 27.6011C66.5801 27.9259 66.9661 28.1293 67.712 28.1293C68.676 28.1332 69.3957 27.8163 69.7099 27.2725H69.7159Z" fill="white"/>
<path d="M71.9797 26.6914V26.5329C71.9797 25.1635 73.0035 24.3184 74.6314 24.3184C76.105 24.3184 77.1829 25.1009 77.1829 26.1906V26.2258H76.2932V26.1906C76.2932 25.5489 75.601 25.0911 74.6314 25.0911C73.5253 25.0911 72.8694 25.6272 72.8694 26.5427V26.6836C72.8694 27.5698 73.5253 28.1078 74.6314 28.1078C75.6091 28.1078 76.2932 27.65 76.2932 27.0162V26.981H77.1793V27.0162C77.1793 28.1156 76.1373 28.8806 74.6274 28.8806C73.0176 28.8806 71.9797 28.0276 71.9797 26.6914Z" fill="white"/>
<path d="M83.1907 26.8773H78.903C78.9572 27.6402 79.6049 28.1078 80.6287 28.1078C81.5809 28.1078 82.2287 27.7635 82.2647 27.2549H83.1907C83.0905 28.2741 82.1386 28.8806 80.6287 28.8806C79.029 28.8806 78.0049 28.0374 78.0049 26.7012V26.5055C78.0049 25.1616 79.021 24.3086 80.6287 24.3086C82.2368 24.3086 83.1907 25.1263 83.1907 26.4704V26.8773ZM78.9208 26.173H82.2727C82.1665 25.4961 81.5628 25.0911 80.6287 25.0911C79.695 25.0911 79.0468 25.4961 78.9208 26.173Z" fill="white"/>
<path d="M50.0693 25.1656C50.005 25.1666 49.9408 25.1709 49.8766 25.1705C49.6787 25.1693 49.4817 25.1625 49.2846 25.1502C49.0879 25.138 48.8912 25.1203 48.6954 25.0979C48.4995 25.0756 48.3044 25.0487 48.1098 25.0173C47.9151 24.986 47.7209 24.9504 47.5274 24.9109C47.334 24.8714 47.1414 24.8282 46.9491 24.7817C46.7569 24.7352 46.5655 24.6854 46.3753 24.6328C46.1847 24.5803 45.9944 24.525 45.8054 24.4673C45.6168 24.4097 45.4291 24.35 45.2417 24.2883C44.8677 24.1651 44.4942 24.0338 44.1212 23.8995C43.7482 23.7652 43.3755 23.6275 43.0026 23.4898C42.6297 23.3521 42.2566 23.2146 41.8827 23.0813C41.5088 22.948 41.1344 22.8186 40.7584 22.6974C40.5703 22.6368 40.382 22.5782 40.1933 22.5221C40.0046 22.466 39.8153 22.4128 39.6257 22.3621C39.4361 22.3115 39.2462 22.2637 39.0556 22.2194C38.8649 22.1751 38.6733 22.1339 38.4816 22.097C38.2898 22.0601 38.0974 22.0271 37.9044 21.9985C37.7113 21.97 37.5178 21.9458 37.3233 21.9266C37.1289 21.9073 36.9339 21.8931 36.7379 21.8841C36.5419 21.8752 36.345 21.8714 36.1473 21.8737C35.9438 21.8759 35.7405 21.885 35.5375 21.9001C35.3346 21.9152 35.1318 21.9364 34.9304 21.9641C34.7289 21.9918 34.5282 22.0256 34.3289 22.0656C34.1296 22.1056 33.932 22.1519 33.7358 22.204C33.5395 22.2562 33.3452 22.3141 33.1528 22.3782C33.1109 22.3921 33.0701 22.4097 33.0283 22.4243C33.8052 24.8415 35.8947 27.3445 39.6295 30.4151C40.9706 31.5176 42.1418 32.4194 42.2326 32.4194C42.6747 32.4194 46.1083 29.5982 47.8517 27.8023C48.7273 26.9009 49.4655 26.0197 50.0693 25.1656Z" fill="#FECB00"/>
<path d="M37.2589 15.4182C36.379 15.4255 35.5205 15.6159 34.8754 16.0063C33.2093 17.0148 32.6479 18.1067 32.674 20.2881C32.6825 21.0004 32.7985 21.7079 33.0283 22.4228C33.0701 22.4083 33.1108 22.3907 33.1528 22.3767C33.3452 22.3126 33.5395 22.2547 33.7358 22.2026C33.932 22.1504 34.1297 22.1042 34.3289 22.0642C34.5282 22.0242 34.7288 21.9903 34.9303 21.9626C35.1318 21.935 35.3346 21.9138 35.5376 21.8987C35.7404 21.8836 35.9437 21.8745 36.1473 21.8722C36.345 21.87 36.5419 21.8738 36.7379 21.8827C36.9339 21.8917 37.1289 21.9058 37.3234 21.9251C37.5178 21.9444 37.7113 21.9685 37.9044 21.9971C38.0974 22.0257 38.2898 22.0586 38.4815 22.0955C38.6733 22.1324 38.8649 22.1737 39.0555 22.218C39.2461 22.2622 39.4361 22.31 39.6257 22.3607C39.8153 22.4114 40.0046 22.4645 40.1933 22.5206C40.382 22.5767 40.5704 22.6354 40.7584 22.696C41.1344 22.8171 41.5088 22.9465 41.8827 23.0799C42.2566 23.2131 42.6297 23.3507 43.0026 23.4883C43.3755 23.626 43.7482 23.7637 44.1212 23.8981C44.4941 24.0324 44.8676 24.1636 45.2416 24.2869C45.429 24.3485 45.6168 24.4083 45.8054 24.4659C45.9944 24.5235 46.1846 24.5788 46.3752 24.6314C46.5654 24.6839 46.7568 24.7337 46.9491 24.7802C47.1409 24.8268 47.3339 24.87 47.5274 24.9094C47.7208 24.9489 47.9151 24.9845 48.1097 25.0159C48.3044 25.0473 48.4994 25.0742 48.6953 25.0964C48.8912 25.1188 49.0878 25.1365 49.2845 25.1488C49.4816 25.161 49.6787 25.1679 49.8766 25.1691C49.9408 25.1694 50.005 25.1651 50.0692 25.1642C52.5532 21.6517 52.7317 18.6021 50.4815 16.5249C49.7166 15.8187 49.1161 15.5889 47.7495 15.4797C45.614 15.309 44.2347 15.9088 43.1903 17.4625C42.3586 18.6998 42.0919 18.8013 41.8227 17.9842C41.7186 17.6682 41.194 17.0042 40.6568 16.5083C39.8767 15.7882 38.5448 15.4074 37.2589 15.4182Z" fill="#0068C2"/>
<path opacity="0.217903" d="M44.6313 30.002C48.8289 25.7025 50.4152 23.0354 50.4205 20.2677C50.4241 18.07 49.7255 16.8396 48.0317 16.0639L46.6643 15.4375L48.0899 15.5909C50.7117 15.8729 52.3739 18.3592 51.8828 21.2638C51.5125 23.454 50.0808 25.5837 46.9522 28.5997C43.3282 32.093 41.5278 33.1809 44.6313 30.002ZM40.523 18.2893C39.8403 17.0969 39.2675 16.548 38.2347 16.0962C36.8947 15.5101 36.8838 15.4935 37.8379 15.4879C39.6665 15.4772 42.4333 17.8679 42.1727 19.2335C41.9952 20.1642 41.4024 19.8249 40.523 18.2893Z" fill="white"/>
<path opacity="0.367623" d="M36.2259 16.8672C35.8249 16.8648 35.3964 17.1097 34.8761 17.611C33.4235 18.8729 34.2962 23.8883 34.9446 20.7007C35.0645 20.1751 35.8597 19.4438 36.3747 19.077C37.5662 18.2282 37.77 17.9244 37.1421 17.3194C36.8328 17.0214 36.5377 16.8693 36.2259 16.8672ZM45.9435 16.9368C45.3748 16.9332 44.7739 17.3474 44.3677 18.1044C43.7278 19.2968 44.0884 19.3576 45.0255 19.3576C45.4649 19.3576 45.8918 19.012 46.3962 18.5898C47.2471 17.8774 47.2749 17.7847 46.7778 17.2979C46.5303 17.0554 46.2411 16.9387 45.9435 16.9368Z" fill="white"/>
</g>
</g>
<defs>
<filter id="filter0_d_52_1158" x="0" y="0" width="92" height="42" filterUnits="userSpaceOnUse" color-interpolation-filters="sRGB">
<feFlood flood-opacity="0" result="BackgroundImageFix"/>
<feColorMatrix in="SourceAlpha" type="matrix" values="0 0 0 0 0 0 0 0 0 0 0 0 0 0 0 0 0 0 127 0" result="hardAlpha"/>
<feOffset dy="4"/>
<feGaussianBlur stdDeviation="2"/>
<feComposite in2="hardAlpha" operator="out"/>
<feColorMatrix type="matrix" values="0 0 0 0 0 0 0 0 0 0 0 0 0 0 0 0 0 0 0.25 0"/>
<feBlend mode="normal" in2="BackgroundImageFix" result="effect1_dropShadow_52_1158"/>
<feBlend mode="normal" in="SourceGraphic" in2="effect1_dropShadow_52_1158" result="shape"/>
</filter>
<clipPath id="clip0_52_1158">
<rect width="84" height="34" fill="white" transform="translate(4)"/>
</clipPath>
</defs>
</svg>
