<svg width="44" height="24" viewBox="0 0 44 24" fill="none" xmlns="http://www.w3.org/2000/svg">
<circle cx="12" cy="12" r="12" transform="matrix(-1 0 0 1 24 0)" fill="#26628E"/>
<path d="M7.29289 12.7071C6.90237 12.3166 6.90237 11.6834 7.29289 11.2929L13.6569 4.92893C14.0474 4.53841 14.6805 4.53841 15.0711 4.92893C15.4616 5.31946 15.4616 5.95262 15.0711 6.34315L9.41422 12L15.0711 17.6569C15.4616 18.0474 15.4616 18.6805 15.0711 19.0711C14.6805 19.4616 14.0474 19.4616 13.6569 19.0711L7.29289 12.7071ZM44 13L8 13L8 11L44 11L44 13Z" fill="#76B2DE"/>
</svg>
