<svg width="145" height="74" viewBox="0 0 145 74" fill="none" xmlns="http://www.w3.org/2000/svg">
<g clip-path="url(#clip0_47_1651)">
<rect width="145" height="74" fill="white"/>
<path d="M119.442 28.6188C120.722 36.1426 100.745 45.9958 74.8168 50.626C48.8914 55.2561 26.8364 52.9066 25.558 45.3796C24.2806 37.8547 44.2629 28.0047 70.1883 23.3756C96.1148 18.7434 118.166 21.0928 119.442 28.6188Z" fill="#034EA2"/>
<path d="M95.0409 39.7883L94.9077 31.9648H97.3138V41.8255H93.8543L91.4534 33.733H91.4017L91.5349 41.8255H89.1443V31.9648H92.7535L94.9872 39.7883H95.0409Z" fill="white"/>
<path d="M51.3038 32.8881L49.9727 41.9292H47.3486L49.1507 31.9648H53.4735L55.2672 41.9292H52.6535L51.3585 32.8881H51.3038Z" fill="white"/>
<path d="M61.3786 41.9292L59.7532 32.9707H59.7005L59.6396 41.9292H57.2056L57.4204 31.9648H61.3859L62.5858 39.5819H62.6375L63.8385 31.9648H67.8019L68.0126 41.9292H65.5837L65.5197 32.9707H65.4691L63.8447 41.9292H61.3786Z" fill="white"/>
<path d="M43.2562 39.1183C43.3512 39.3597 43.3223 39.6699 43.2779 39.8573C43.1963 40.1887 42.9774 40.5265 42.3309 40.5265C41.7217 40.5265 41.352 40.1686 41.352 39.6212V38.6566H38.7455L38.7434 39.4285C38.7434 41.6499 40.4494 42.3201 42.2772 42.3201C44.0349 42.3201 45.4827 41.7039 45.713 40.0437C45.8307 39.1829 45.7429 38.6196 45.7026 38.4068C45.2927 36.3209 41.6039 35.6983 41.3292 34.5316C41.2828 34.3314 41.2962 34.1197 41.3189 34.0064C41.386 33.6887 41.5988 33.3383 42.207 33.3383C42.775 33.3383 43.1106 33.6983 43.1106 34.2425C43.1106 34.4257 43.1106 34.8577 43.1106 34.8577H45.5343V34.1578C45.5343 31.9873 43.6342 31.6484 42.2576 31.6484C40.5289 31.6484 39.1162 32.234 38.858 33.856C38.7878 34.3039 38.7775 34.7031 38.8797 35.2028C39.3042 37.2389 42.7564 37.8287 43.2562 39.1183Z" fill="white"/>
<path d="M74.8581 39.0999C74.9542 39.3392 74.9232 39.641 74.8798 39.8284C74.8003 40.1587 74.5834 40.4912 73.9411 40.4912C73.3401 40.4912 72.9735 40.1333 72.9735 39.5986L72.9714 38.6425H70.3918L70.3887 39.4038C70.3887 41.6029 72.0792 42.2668 73.8884 42.2668C75.6275 42.2668 77.0618 41.659 77.288 40.0136C77.4057 39.1592 77.3221 38.6033 77.2797 38.3947C76.8718 36.328 73.2203 35.7117 72.9487 34.5566C72.9022 34.3575 72.9156 34.1479 72.9394 34.041C73.0086 33.7212 73.2172 33.3792 73.8192 33.3792C74.382 33.3792 74.7104 33.7307 74.7104 34.2707C74.7104 34.4518 74.7104 34.8795 74.7104 34.8795H77.1155V34.1871C77.1155 32.0398 75.2309 31.7031 73.8678 31.7031C72.1587 31.7031 70.7573 32.2812 70.5043 33.8917C70.4341 34.3332 70.4269 34.7249 70.5271 35.2226C70.9453 37.2375 74.3635 37.823 74.8581 39.0999Z" fill="white"/>
<path d="M83.0215 40.4388C83.6958 40.4388 83.9065 39.9602 83.953 39.7156C83.9726 39.6076 83.9777 39.4636 83.9757 39.3344V31.9609H86.4334V39.1089C86.4386 39.2921 86.4211 39.669 86.4128 39.7632C86.2403 41.6235 84.8059 42.2271 83.0204 42.2271C81.2329 42.2271 79.7974 41.6235 79.6271 39.7632C79.6188 39.669 79.6012 39.2921 79.6064 39.1089V31.9609H82.0621V39.3344C82.0621 39.4636 82.0662 39.6087 82.0848 39.7156C82.1375 39.9602 82.342 40.4388 83.0215 40.4388Z" fill="white"/>
<path d="M103.295 40.3333C103.999 40.3333 104.245 39.877 104.291 39.6112C104.308 39.4969 104.313 39.3582 104.312 39.2322V37.7859H103.315V36.3311H106.761V39.0056C106.759 39.1919 106.755 39.3296 106.726 39.6621C106.563 41.4747 105.03 42.1216 103.307 42.1216C101.582 42.1216 100.05 41.4747 99.8862 39.6621C99.8583 39.3296 99.8542 39.1919 99.8511 39.0056L99.8531 34.8096C99.8531 34.6328 99.8748 34.3193 99.8934 34.1531C100.109 32.2907 101.582 31.6914 103.307 31.6914C105.031 31.6914 106.54 32.2875 106.718 34.1531C106.75 34.4708 106.74 34.8096 106.74 34.8096V35.142H104.29V34.584C104.292 34.5851 104.286 34.3469 104.258 34.205C104.216 33.9848 104.029 33.4787 103.289 33.4787C102.58 33.4787 102.373 33.9572 102.321 34.205C102.291 34.3363 102.28 34.5142 102.28 34.6751V39.2322C102.278 39.3582 102.285 39.4969 102.305 39.6112C102.347 39.8781 102.592 40.3333 103.295 40.3333Z" fill="white"/>
</g>
<defs>
<clipPath id="clip0_47_1651">
<rect width="145" height="74" fill="white"/>
</clipPath>
</defs>
</svg>
