<svg width="188" height="96" viewBox="0 0 188 96" fill="none" xmlns="http://www.w3.org/2000/svg">
<rect width="188" height="96" fill="white"/>
<path d="M73.8443 33L69.4937 42.6941H58L66.4234 49.5354L60.8293 62L71.3872 53.5671L78.1287 59.0425L76.5496 49.4437L85 42.6941H75.4392L73.8443 33Z" fill="#F04F23"/>
<path d="M91 44H88V53H91V44Z" fill="#F04F23"/>
<path d="M105 47.3C105 45.275 103.127 44 99.5 44C95.5942 44 94 45.5 94 48.5C94 51.5 95.5942 53 99.5 53C103.127 53 105 51.725 105 49.7H101.732C101.254 51.425 97.2681 51.8 97.2681 48.5C97.2681 45.2 101.254 45.575 101.732 47.3H105Z" fill="#F04F23"/>
<path d="M107 44V46.1696H109.667C109.799 46.1696 109.926 46.2204 110.02 46.3109C110.114 46.4013 110.167 46.5239 110.167 46.6518V53H113.833V46.6518C113.833 46.5239 113.886 46.4013 113.98 46.3109C114.074 46.2204 114.201 46.1696 114.333 46.1696H117V44H107Z" fill="#F04F23"/>
<path d="M118.902 44L121.756 53H127.146L130 44H126.512L124.848 49.9464C124.681 50.5411 124.221 50.5411 124.055 49.9464L122.39 44H117H118.902Z" fill="#F04F23"/>
</svg>
