<svg width="188" height="96" viewBox="0 0 188 96" fill="none" xmlns="http://www.w3.org/2000/svg">
<rect width="188" height="96" fill="white"/>
<path d="M140.942 39.6188C142.222 47.1426 122.245 56.9958 96.3168 61.626C70.3914 66.2561 48.3364 63.9066 47.058 56.3796C45.7806 48.8547 65.7629 39.0047 91.6883 34.3756C117.615 29.7434 139.666 32.0928 140.942 39.6188Z" fill="#034EA2"/>
<path d="M116.541 50.7883L116.408 42.9648H118.814V52.8255H115.354L112.953 44.733H112.902L113.035 52.8255H110.644V42.9648H114.254L116.487 50.7883H116.541Z" fill="white"/>
<path d="M72.8038 43.8881L71.4727 52.9292H68.8486L70.6507 42.9648H74.9735L76.7672 52.9292H74.1535L72.8585 43.8881H72.8038Z" fill="white"/>
<path d="M82.8786 52.9292L81.2532 43.9707H81.2005L81.1396 52.9292H78.7056L78.9204 42.9648H82.8859L84.0858 50.5819H84.1375L85.3385 42.9648H89.3019L89.5126 52.9292H87.0837L87.0197 43.9707H86.9691L85.3447 52.9292H82.8786Z" fill="white"/>
<path d="M64.7562 50.1183C64.8512 50.3597 64.8223 50.6699 64.7779 50.8573C64.6963 51.1887 64.4774 51.5265 63.8309 51.5265C63.2217 51.5265 62.852 51.1686 62.852 50.6212V49.6566H60.2455L60.2434 50.4285C60.2434 52.6499 61.9494 53.3201 63.7772 53.3201C65.5349 53.3201 66.9827 52.7039 67.213 51.0437C67.3307 50.1829 67.2429 49.6196 67.2026 49.4068C66.7927 47.3209 63.1039 46.6983 62.8292 45.5316C62.7828 45.3314 62.7962 45.1197 62.8189 45.0064C62.886 44.6887 63.0988 44.3383 63.707 44.3383C64.275 44.3383 64.6106 44.6983 64.6106 45.2425C64.6106 45.4257 64.6106 45.8577 64.6106 45.8577H67.0343V45.1578C67.0343 42.9873 65.1342 42.6484 63.7576 42.6484C62.0289 42.6484 60.6162 43.234 60.358 44.856C60.2878 45.3039 60.2775 45.7031 60.3797 46.2028C60.8042 48.2389 64.2564 48.8287 64.7562 50.1183Z" fill="white"/>
<path d="M96.3581 50.0999C96.4542 50.3392 96.4232 50.641 96.3798 50.8284C96.3003 51.1587 96.0834 51.4912 95.4411 51.4912C94.8401 51.4912 94.4735 51.1333 94.4735 50.5986L94.4714 49.6425H91.8918L91.8887 50.4038C91.8887 52.6029 93.5792 53.2668 95.3884 53.2668C97.1275 53.2668 98.5618 52.659 98.788 51.0136C98.9057 50.1592 98.8221 49.6033 98.7797 49.3947C98.3718 47.328 94.7203 46.7117 94.4487 45.5566C94.4022 45.3575 94.4156 45.1479 94.4394 45.041C94.5086 44.7212 94.7172 44.3792 95.3192 44.3792C95.882 44.3792 96.2104 44.7307 96.2104 45.2707C96.2104 45.4518 96.2104 45.8795 96.2104 45.8795H98.6155V45.1871C98.6155 43.0398 96.7309 42.7031 95.3678 42.7031C93.6587 42.7031 92.2573 43.2812 92.0043 44.8917C91.9341 45.3332 91.9269 45.7249 92.0271 46.2226C92.4453 48.2375 95.8635 48.823 96.3581 50.0999Z" fill="white"/>
<path d="M104.521 51.4388C105.196 51.4388 105.406 50.9602 105.453 50.7156C105.473 50.6076 105.478 50.4636 105.476 50.3344V42.9609H107.933V50.1089C107.939 50.2921 107.921 50.669 107.913 50.7632C107.74 52.6235 106.306 53.2271 104.52 53.2271C102.733 53.2271 101.297 52.6235 101.127 50.7632C101.119 50.669 101.101 50.2921 101.106 50.1089V42.9609H103.562V50.3344C103.562 50.4636 103.566 50.6087 103.585 50.7156C103.637 50.9602 103.842 51.4388 104.521 51.4388Z" fill="white"/>
<path d="M124.795 51.3333C125.499 51.3333 125.745 50.877 125.791 50.6112C125.808 50.4969 125.813 50.3582 125.812 50.2322V48.7859H124.815V47.3311H128.261V50.0056C128.259 50.1919 128.255 50.3296 128.226 50.6621C128.063 52.4747 126.53 53.1216 124.807 53.1216C123.082 53.1216 121.55 52.4747 121.386 50.6621C121.358 50.3296 121.354 50.1919 121.351 50.0056L121.353 45.8096C121.353 45.6328 121.375 45.3193 121.393 45.1531C121.609 43.2907 123.082 42.6914 124.807 42.6914C126.531 42.6914 128.04 43.2875 128.218 45.1531C128.25 45.4708 128.24 45.8096 128.24 45.8096V46.142H125.79V45.584C125.792 45.5851 125.786 45.3469 125.758 45.205C125.716 44.9848 125.529 44.4787 124.789 44.4787C124.08 44.4787 123.873 44.9572 123.821 45.205C123.791 45.3363 123.78 45.5142 123.78 45.6751V50.2322C123.778 50.3582 123.785 50.4969 123.805 50.6112C123.847 50.8781 124.092 51.3333 124.795 51.3333Z" fill="white"/>
</svg>
