<svg width="145" height="74" viewBox="0 0 145 74" fill="none" xmlns="http://www.w3.org/2000/svg">
<g clip-path="url(#clip0_47_1656)">
<rect width="145" height="74" fill="white"/>
<path d="M77.0926 24.4947C75.9815 25.1886 75.5 26.484 75.5 30C75.5 30 76.0556 29.3061 76.9444 28.8897C77.5926 28.589 78.0556 28.1957 78.3889 27.895C79.3519 26.9929 79.5 25.9057 79.5 24.0089C79.4815 24.0089 77.963 23.8933 77.0926 24.4947Z" fill="#FBBD71"/>
<path d="M69.229 25.2463C68.1349 26.1715 67.8614 27.7637 67.8614 27.7637L64.3267 41.6196L61.4233 30.281C61.1498 29.0761 60.6027 27.5915 59.7822 26.5588C58.7723 25.2463 56.6683 25.1603 56.4158 25.1603C56.2265 25.1603 54.1436 25.2463 53.0495 26.5588C52.229 27.5915 51.6819 29.0761 51.4084 30.281L48.6733 41.6196L45.1386 27.7637C45.1386 27.7637 44.8651 26.2791 43.771 25.2463C42.0458 23.6542 39.5 24.0415 39.5 24.0415L46.2327 49.9676C46.2327 49.9676 48.4208 50.1612 49.5149 49.6018C50.9666 48.8488 51.703 48.3109 52.5235 44.7609C53.3441 41.5981 55.5322 32.3895 55.7005 31.744C55.7847 31.4643 55.974 30.6252 56.521 30.6252C57.0681 30.6252 57.2574 31.3782 57.3416 31.744C57.5309 32.3895 59.698 41.5981 60.5186 44.7609C61.4233 48.2894 62.0545 48.8488 63.5272 49.6018C64.6213 50.1612 66.8094 49.9676 66.8094 49.9676L73.5 24.0415C73.5 24.0415 70.9542 23.6757 69.229 25.2463Z" fill="black"/>
<path d="M79.5 28C79.5 28 79.0926 28.6544 78.2963 29.2216C77.7407 29.5925 77.2593 29.7888 76.7037 30.1596C75.7407 30.7268 75.5 31.294 75.5 32.1447V32.4283V33.8463V34.1299V49.9671C75.5 49.9671 77.0185 50.1635 77.9815 49.5963C79.2593 48.8328 79.5 48.0911 79.5 44.8844V29.0471V28Z" fill="black"/>
<path d="M96.9877 37.0517L105.5 24.122C105.5 24.122 101.978 23.4766 100.154 25.1547C98.9795 26.1873 97.8054 28.1236 97.8054 28.1236L94.7233 32.7705C94.5346 33.0502 94.3669 33.2438 94.0943 33.2438C93.8218 33.2438 93.5492 32.9641 93.4654 32.7705L90.3833 28.1236C90.3833 28.1236 89.1253 26.2734 88.0351 25.1547C86.232 23.4766 82.6887 24.122 82.6887 24.122L90.9284 37.0302L82.5 49.9384C82.5 49.9384 86.211 50.4117 88.0351 48.7337C89.2092 47.701 90.2995 45.9369 90.2995 45.9369L93.3815 41.2899C93.5702 41.0103 93.7379 40.8166 94.0105 40.8166C94.283 40.8166 94.5556 41.0963 94.6395 41.2899L97.7215 45.9369C97.7215 45.9369 98.8956 47.701 99.9859 48.7337C101.789 50.4117 105.416 49.9384 105.416 49.9384L96.9877 37.0517Z" fill="black"/>
</g>
<defs>
<clipPath id="clip0_47_1656">
<rect width="145" height="74" fill="white"/>
</clipPath>
</defs>
</svg>
