<svg width="145" height="74" viewBox="0 0 145 74" fill="none" xmlns="http://www.w3.org/2000/svg">
<g clip-path="url(#clip0_47_1655)">
<rect width="145" height="74" fill="white"/>
<path d="M33.2639 43.1755C31.2361 43.1755 29.7292 41.8257 29.5347 39.9144H37.5139C38.3958 36.5328 36.4375 34 32.9167 34C29.9375 34 27.5 36.4727 27.5 39.5C27.5 42.6343 29.9792 45 33.2569 45C35.7361 45 37.6389 43.777 38.5 41.9058L36.8472 40.9101C36.3264 42.26 35.0764 43.1755 33.2639 43.1755ZM32.9167 35.7643C34.75 35.7643 35.8264 36.8001 35.7847 38.3372H29.6389C30.007 36.7199 31.2153 35.7643 32.9167 35.7643Z" fill="#2722FF"/>
<path d="M45.3519 34C44.0679 34 42.9938 34.66 42.2284 35.5812V34.3162H40.5V44.9931H42.2284V39.3763C42.2284 37.4994 43.3765 35.8769 45.2593 35.8769C46.8334 35.8769 47.7716 36.9906 47.7716 38.5925V45H49.5V38.4206C49.4938 35.5744 47.9012 34 45.3519 34Z" fill="#2722FF"/>
<path d="M68.2602 45C70.7379 45 72.6395 43.777 73.5 41.9058L71.8413 40.9101C71.3208 42.26 70.0716 43.1755 68.2602 43.1755C66.2338 43.1755 64.7277 41.8257 64.5334 39.9144H72.5076C73.3889 36.5328 71.4319 34 67.9132 34C64.936 34 62.5 36.4727 62.5 39.5C62.5069 42.6343 64.9845 45 68.2602 45ZM67.9132 35.7643C69.7454 35.7643 70.8211 36.8001 70.7795 38.3372H64.6375C65.0054 36.7199 66.2129 35.7643 67.9132 35.7643Z" fill="#2722FF"/>
<path d="M56.0824 35.272C57.2692 35.272 58.2912 35.6026 59.4648 36.5803L59.5176 36.3904L60.5 33.5276L58.9835 33L58.7066 34.1676C57.9615 33.7526 57.0714 33.415 56.1022 33.415C53.6231 33.415 52.2516 34.6389 52.2516 36.4748C52.2516 38.2896 53.7484 39.1829 56.0626 39.9707C57.9483 40.5826 58.4824 41.1735 58.4824 41.7433C58.4824 42.6577 57.6451 43.1852 56.4516 43.1852C54.9154 43.1852 53.6033 42.3553 52.911 41.0891L51.5 42.3341C52.3571 43.8183 54.078 45 56.3725 45C59.0758 45 60.3879 43.4736 60.3879 41.5463C60.3879 40.2802 59.5901 39.2322 56.5374 38.1559C55.1659 37.6565 54.1637 37.3681 54.1637 36.4326C54.1572 35.7573 54.5857 35.272 56.0824 35.272Z" fill="#2722FF"/>
<path d="M21.0856 35.272C22.2716 35.272 23.2928 35.6026 24.4656 36.5803L24.5183 36.3904L25.5 33.5275L23.9846 33L23.7079 34.1676C22.9634 33.7526 22.0739 33.415 21.1054 33.415C18.6281 33.415 17.2577 34.6389 17.2577 36.4748C17.2577 38.2896 18.7533 39.1829 21.0659 39.9707C22.9502 40.5826 23.4839 41.1735 23.4839 41.7433C23.4839 42.6577 22.6471 43.1852 21.4546 43.1852C19.9195 43.1852 18.6083 42.3552 17.9165 41.0891L16.5 42.3341C17.3565 43.8183 19.0761 45 21.369 45C24.0702 45 25.3814 43.4736 25.3814 41.5463C25.3814 40.2802 24.5842 39.2321 21.5337 38.1559C20.1632 37.6565 19.1618 37.3681 19.1618 36.4326C19.1618 35.7573 19.59 35.272 21.0856 35.272Z" fill="#2722FF"/>
<path d="M90.5 39.0361C90.5 42.4296 88.1506 45 85.0107 45C83.6187 45 82.3948 44.3719 81.4582 43.4043V44.6607H79.5V29H81.4582V34.6679C82.3948 33.7004 83.6122 33.0722 85.0107 33.0722C88.1506 33.0722 90.5 35.6354 90.5 39.0361ZM88.4579 39.0361C88.4579 36.7184 86.9759 35.0578 84.9266 35.0578C82.8774 35.0578 81.3954 36.7256 81.3954 39.0361C81.3954 41.3538 82.8774 43.0144 84.9266 43.0144C86.9759 43.0144 88.4579 41.3538 88.4579 39.0361Z" fill="#2722FF"/>
<path d="M103.037 42.8215C102.958 42.8215 102.891 42.8081 102.825 42.7879C102.62 42.714 102.501 42.5324 102.501 42.2634L102.726 39.5L102.819 38.5318L103.229 34.2353H101.389L101.25 35.8423C101.25 35.8423 101.25 35.8356 101.243 35.8356C101.237 35.8221 101.223 35.802 101.217 35.7885C101.084 35.5935 100.926 35.412 100.754 35.2573C99.9062 34.4908 98.847 34 97.6495 34C94.704 34 92.5 36.3668 92.5 39.5C92.5 42.6333 94.7108 45 97.6495 45C98.9333 45 100.059 44.4419 100.932 43.5746C100.945 43.7024 100.959 43.7561 100.998 43.857C101.005 43.8704 101.005 43.8771 101.005 43.8771C101.104 44.0721 101.23 44.2402 101.396 44.368C101.601 44.5227 101.852 44.6235 102.15 44.6706C102.263 44.6907 102.388 44.6975 102.514 44.6975H102.819H103.5V42.8282H103.037V42.8215ZM97.7419 43.1779C95.8226 43.1779 94.4328 41.6381 94.4328 39.5C94.4328 37.3619 95.8226 35.8221 97.7419 35.8221C99.6613 35.8221 101.051 37.3619 101.051 39.5C101.051 41.6381 99.6613 43.1779 97.7419 43.1779Z" fill="#2722FF"/>
<path d="M111.891 34C110.465 34 109.271 34.66 108.42 35.5812V34.3162H106.5V44.9931H108.42V39.3763C108.42 37.4994 109.696 35.8769 111.788 35.8769C113.537 35.8769 114.58 36.9906 114.58 38.5925V45H116.5V38.4206C116.494 35.5744 114.724 34 111.891 34Z" fill="#2722FF"/>
<path d="M122.35 39.073L127.918 33.5229H125.377L120.433 38.4818V29H118.5V45H120.433V39.945L125.681 45H128.5L122.35 39.073Z" fill="#2722FF"/>
</g>
<defs>
<clipPath id="clip0_47_1655">
<rect width="145" height="74" fill="white"/>
</clipPath>
</defs>
</svg>
