<svg width="145" height="74" viewBox="0 0 145 74" fill="none" xmlns="http://www.w3.org/2000/svg">
<g clip-path="url(#clip0_47_1653)">
<rect width="145" height="74" fill="white"/>
<path fill-rule="evenodd" clip-rule="evenodd" d="M13.415 39.7892V35.6012C13.415 34.4132 12.7651 33.8492 11.6737 33.8492C10.7663 33.8492 9.98145 34.3772 9.63809 34.9052C9.41736 34.2452 8.86554 33.8492 7.99488 33.8492C7.08744 33.8492 6.30262 34.4012 6.05737 34.7492V33.9932H4.5V39.7892H6.05737V35.8892C6.29036 35.5652 6.74408 35.2052 7.28364 35.2052C7.92131 35.2052 8.16656 35.5892 8.16656 36.1292V39.7892H9.73619V35.8772C9.95692 35.5652 10.4106 35.2052 10.9625 35.2052C11.6001 35.2052 11.8454 35.5892 11.8454 36.1292V39.7892H13.415ZM17.6947 39.9332C15.7449 39.9332 14.5677 38.5412 14.5677 36.8852C14.5677 35.2412 15.7449 33.8492 17.6947 33.8492C19.6568 33.8492 20.834 35.2412 20.834 36.8852C20.834 38.5412 19.6568 39.9332 17.6947 39.9332ZM17.6947 38.5772C18.6635 38.5772 19.2153 37.7972 19.2153 36.8852C19.2153 35.9852 18.6635 35.2052 17.6947 35.2052C16.726 35.2052 16.1864 35.9852 16.1864 36.8852C16.1864 37.7972 16.726 38.5772 17.6947 38.5772ZM27.5417 39.7892V35.6972C27.5417 34.5692 26.9163 33.8492 25.6164 33.8492C24.6477 33.8492 23.9242 34.3052 23.544 34.7492V33.9932H21.9867V39.7892H23.544V35.8892C23.8016 35.5412 24.2798 35.2052 24.8929 35.2052C25.5551 35.2052 25.9843 35.4812 25.9843 36.2852V39.7892H27.5417ZM31.8337 39.9332C29.8839 39.9332 28.7067 38.5412 28.7067 36.8852C28.7067 35.2412 29.8839 33.8492 31.8337 33.8492C33.7957 33.8492 34.9729 35.2412 34.9729 36.8852C34.9729 38.5412 33.7957 39.9332 31.8337 39.9332ZM31.8337 38.5772C32.8024 38.5772 33.3542 37.7972 33.3542 36.8852C33.3542 35.9852 32.8024 35.2052 31.8337 35.2052C30.8649 35.2052 30.3253 35.9852 30.3253 36.8852C30.3253 37.7972 30.8649 38.5772 31.8337 38.5772ZM37.683 37.9292C37.9405 38.3012 38.5169 38.5772 39.0196 38.5772C39.9271 38.5772 40.5279 37.9052 40.5279 36.8972C40.5279 35.8892 39.9271 35.2052 39.0196 35.2052C38.5169 35.2052 37.9405 35.4932 37.683 35.8772V37.9292ZM37.683 39.7892H36.1256V31.7852H37.683V34.7372C38.149 34.1492 38.8112 33.8492 39.5101 33.8492C41.0185 33.8492 42.1344 35.0012 42.1344 36.8972C42.1344 38.8292 41.0062 39.9332 39.5101 39.9332C38.7989 39.9332 38.149 39.6212 37.683 39.0452V39.7892ZM48.4252 39.7892H46.8678V39.1892C46.4631 39.6572 45.7641 39.9332 44.9916 39.9332C44.0474 39.9332 42.9314 39.3092 42.9314 38.0132C42.9314 36.6572 44.0474 36.1412 44.9916 36.1412C45.7764 36.1412 46.4754 36.3932 46.8678 36.8492V36.0692C46.8678 35.4812 46.3527 35.0972 45.5679 35.0972C44.9303 35.0972 44.3417 35.3252 43.8389 35.7812L43.2503 34.7612C43.9738 34.1372 44.9057 33.8492 45.8377 33.8492C47.1866 33.8492 48.4252 34.3772 48.4252 36.0452V39.7892ZM45.617 38.9012C46.1198 38.9012 46.6103 38.7332 46.8678 38.3972V37.6772C46.6103 37.3412 46.1198 37.1732 45.617 37.1732C45.0038 37.1732 44.5011 37.4852 44.5011 38.0492C44.5011 38.5892 45.0038 38.9012 45.617 38.9012ZM55.5253 39.7892V35.6972C55.5253 34.5692 54.8999 33.8492 53.6 33.8492C52.6313 33.8492 51.9078 34.3052 51.5276 34.7492V33.9932H49.9703V39.7892H51.5276V35.8892C51.7851 35.5412 52.2634 35.2052 52.8765 35.2052C53.5387 35.2052 53.9679 35.4812 53.9679 36.2852V39.7892H55.5253ZM62.8584 39.7892L60.4426 36.6212L62.7848 33.9932H60.8718L58.6278 36.5732V31.7852H57.0704V39.7892H58.6278V38.3012L59.339 37.5572L60.9086 39.7892H62.8584Z" fill="black"/>
<path fill-rule="evenodd" clip-rule="evenodd" d="M135.944 32.8799H137.22V36.8509H137.292L138.951 34.9434L140.128 34.9404L138.308 37.0254L140.5 39.6329H139.031L137.238 37.2059H137.22V39.6329H135.944V32.8799ZM75.2934 33.1819V36.8849C75.2934 38.1464 75.6751 38.8359 76.7445 38.8359C77.7679 38.8359 78.1772 37.9999 78.1772 36.9579V33.1819H79.383V37.1884C79.383 38.8174 78.2927 39.7404 76.7067 39.7404C74.8908 39.7404 73.9465 38.8819 73.9465 37.1239V33.1819H75.2934ZM82.2014 35.5674C82.6332 35.1259 83.234 34.9139 83.8369 34.9139C84.9549 34.9139 85.5466 35.5019 85.5466 36.6624V39.6289H84.2779V36.8019C84.2779 36.1564 83.9821 35.7324 83.3214 35.7324C82.7001 35.7324 82.2121 36.1289 82.2121 36.8849V39.6289H80.9419V35.0234H82.2014V35.5674ZM87.0396 39.6289H88.3103V35.0234H87.0396V39.6289ZM86.9149 33.6424C86.9149 33.2929 87.2199 32.9329 87.6517 32.9329C88.0911 32.9329 88.4334 33.2834 88.4334 33.6424C88.4334 34.0379 88.1391 34.4159 87.6701 34.4159C87.2204 34.4159 86.9149 34.0379 86.9149 33.6424ZM91.1215 39.6289L89.088 35.0039H90.4343C90.8461 36.0634 91.2733 37.0599 91.6739 38.3399H91.6933C92.125 37.0599 92.5312 36.0634 92.9701 35.0039H94.1622L92.009 39.6289H91.1215ZM97.9432 36.7744C97.9928 36.0724 97.7342 35.5949 97.1052 35.5949C96.3761 35.5949 96.0491 36.1564 96.0629 36.7744H97.9432ZM96.042 37.4374C96.0133 38.3039 96.6438 38.9474 97.4368 38.9474C97.9079 38.9474 98.4025 38.7909 98.7193 38.5784L99.0821 39.2239C98.4322 39.5919 97.7526 39.7404 97.2084 39.7404C95.765 39.7404 94.6859 38.7539 94.6859 37.2344C94.6859 35.8154 95.7548 34.9139 97.1221 34.9139C98.613 34.9139 99.2349 36.0644 99.1409 37.4374H96.042ZM101.635 35.8339H101.653L101.911 35.4749C102.053 35.2714 102.34 34.9139 102.732 34.9139C103.019 34.9139 103.326 35.0614 103.594 35.3274L103.114 36.1749C102.904 36.0724 102.77 36.0184 102.514 36.0184C102.074 36.0184 101.644 36.3594 101.644 37.3534V39.6289H100.369V35.0234H101.635V35.8339ZM106.986 35.8889C106.7 35.6864 106.403 35.5949 106.173 35.5949C105.886 35.5949 105.599 35.7509 105.599 36.0644C105.599 36.4329 106.059 36.6454 106.594 37.0214C107.274 37.5119 107.473 37.9904 107.473 38.4119C107.473 39.0589 106.736 39.7404 105.687 39.7404C105.026 39.7404 104.54 39.5184 104.091 39.2149L104.493 38.5784C104.778 38.8009 105.188 39.0204 105.531 39.0204C105.897 39.0204 106.221 38.8359 106.221 38.4494C106.221 38.0164 105.723 37.7774 105.266 37.4639C104.72 37.1054 104.349 36.7549 104.349 36.1849C104.349 35.4559 105.073 34.9139 106.01 34.9139C106.537 34.9139 107.052 35.0419 107.398 35.3379L106.986 35.8889ZM110.607 37.1789C109.986 37.3724 109.671 37.7129 109.671 38.2374C109.671 38.6434 109.939 38.9199 110.247 38.9199C110.751 38.9199 111.411 38.3114 111.317 36.9579L110.607 37.1789ZM111.01 39.1874C110.665 39.4639 110.226 39.7404 109.787 39.7404C109.041 39.7404 108.418 39.1874 108.418 38.3399C108.418 37.4639 109.079 36.9764 110.189 36.6624L111.317 36.3399C111.25 35.9169 110.857 35.6504 110.448 35.6504C109.901 35.6504 109.519 35.8439 109.185 36.1204L108.772 35.5399C109.366 35.0704 109.948 34.9139 110.607 34.9139C111.488 34.9139 112.569 35.1884 112.569 36.6269V38.5049C112.569 38.8739 112.615 39.3079 112.769 39.6289H111.422C111.324 39.4719 111.297 39.2059 111.297 38.9569L111.01 39.1874ZM113.993 39.6289H115.265V32.8594H113.993V39.6289ZM126.523 37.1789C125.9 37.3724 125.585 37.7129 125.585 38.2374C125.585 38.6434 125.851 38.9199 126.159 38.9199C126.663 38.9199 127.324 38.3114 127.231 36.9579L126.523 37.1789ZM126.921 39.1874C126.579 39.4639 126.138 39.7404 125.698 39.7404C124.954 39.7404 124.331 39.1874 124.331 38.3399C124.331 37.4639 124.991 36.9764 126.102 36.6624L127.231 36.3399C127.161 35.9169 126.771 35.6504 126.357 35.6504C125.814 35.6504 125.431 35.8439 125.096 36.1204L124.685 35.5399C125.278 35.0704 125.862 34.9139 126.523 34.9139C127.4 34.9139 128.479 35.1884 128.479 36.6269V38.5049C128.479 38.8739 128.526 39.3079 128.679 39.6289H127.333C127.239 39.4719 127.207 39.2059 127.207 38.9569L126.921 39.1874ZM131.166 35.5674C131.596 35.1259 132.199 34.9139 132.801 34.9139C133.919 34.9139 134.511 35.5019 134.511 36.6624V39.6289H133.24V36.8019C133.24 36.1564 132.944 35.7324 132.284 35.7324C131.662 35.7324 131.175 36.1289 131.175 36.8849V39.6289H129.904V35.0234H131.166V35.5674ZM119.902 38.8534H120.589C121.335 38.8534 121.901 38.4764 121.901 37.7589C121.901 37.0029 121.318 36.6809 120.582 36.6809H119.902V38.8534ZM119.902 35.8889H120.324C121.099 35.8889 121.626 35.4104 121.626 34.8104C121.626 34.2404 121.184 33.9924 120.601 33.9924H119.901L119.902 35.8889ZM118.555 39.6464V33.1994H120.974C122.101 33.1994 122.895 33.6964 122.895 34.5714C122.895 35.6024 122.026 36.0274 121.558 36.1464V36.1649C122.389 36.2024 123.315 36.7539 123.315 37.7394C123.315 38.8534 122.349 39.6464 120.774 39.6464H118.555Z" fill="#565656"/>
<path fill-rule="evenodd" clip-rule="evenodd" d="M68.1069 31.2891H68.6179V43.2891H68.1069V31.2891Z" fill="black"/>
</g>
<defs>
<clipPath id="clip0_47_1653">
<rect width="145" height="74" fill="white"/>
</clipPath>
</defs>
</svg>
