<svg width="188" height="96" viewBox="0 0 188 96" fill="none" xmlns="http://www.w3.org/2000/svg">
<rect width="188" height="96" fill="white"/>
<path d="M54.7639 54.1755C52.7361 54.1755 51.2292 52.8257 51.0347 50.9144H59.0139C59.8958 47.5328 57.9375 45 54.4167 45C51.4375 45 49 47.4727 49 50.5C49 53.6343 51.4792 56 54.7569 56C57.2361 56 59.1389 54.777 60 52.9058L58.3472 51.9101C57.8264 53.26 56.5764 54.1755 54.7639 54.1755ZM54.4167 46.7643C56.25 46.7643 57.3264 47.8001 57.2847 49.3372H51.1389C51.507 47.7199 52.7153 46.7643 54.4167 46.7643Z" fill="#2722FF"/>
<path d="M66.8519 45C65.5679 45 64.4938 45.66 63.7284 46.5812V45.3162H62V55.9931H63.7284V50.3763C63.7284 48.4994 64.8765 46.8769 66.7593 46.8769C68.3334 46.8769 69.2716 47.9906 69.2716 49.5925V56H71V49.4206C70.9938 46.5744 69.4012 45 66.8519 45Z" fill="#2722FF"/>
<path d="M89.7602 56C92.2379 56 94.1395 54.777 95 52.9058L93.3413 51.9101C92.8208 53.26 91.5716 54.1755 89.7602 54.1755C87.7338 54.1755 86.2277 52.8257 86.0334 50.9144H94.0076C94.8889 47.5328 92.9319 45 89.4132 45C86.436 45 84 47.4727 84 50.5C84.0069 53.6343 86.4845 56 89.7602 56ZM89.4132 46.7643C91.2454 46.7643 92.3211 47.8001 92.2795 49.3372H86.1375C86.5054 47.7199 87.7129 46.7643 89.4132 46.7643Z" fill="#2722FF"/>
<path d="M77.5824 46.272C78.7692 46.272 79.7912 46.6026 80.9648 47.5803L81.0176 47.3904L82 44.5276L80.4835 44L80.2066 45.1676C79.4615 44.7526 78.5714 44.415 77.6022 44.415C75.1231 44.415 73.7516 45.6389 73.7516 47.4748C73.7516 49.2896 75.2484 50.1829 77.5626 50.9707C79.4483 51.5826 79.9824 52.1735 79.9824 52.7433C79.9824 53.6577 79.1451 54.1852 77.9516 54.1852C76.4154 54.1852 75.1033 53.3553 74.411 52.0891L73 53.3341C73.8571 54.8183 75.578 56 77.8725 56C80.5758 56 81.8879 54.4736 81.8879 52.5463C81.8879 51.2802 81.0901 50.2322 78.0374 49.1559C76.6659 48.6565 75.6637 48.3681 75.6637 47.4326C75.6572 46.7573 76.0857 46.272 77.5824 46.272Z" fill="#2722FF"/>
<path d="M42.5856 46.272C43.7716 46.272 44.7928 46.6026 45.9656 47.5803L46.0183 47.3904L47 44.5275L45.4846 44L45.2079 45.1676C44.4634 44.7526 43.5739 44.415 42.6054 44.415C40.1281 44.415 38.7577 45.6389 38.7577 47.4748C38.7577 49.2896 40.2533 50.1829 42.5659 50.9707C44.4502 51.5826 44.9839 52.1735 44.9839 52.7433C44.9839 53.6577 44.1471 54.1852 42.9546 54.1852C41.4195 54.1852 40.1083 53.3552 39.4165 52.0891L38 53.3341C38.8565 54.8183 40.5761 56 42.869 56C45.5702 56 46.8814 54.4736 46.8814 52.5463C46.8814 51.2802 46.0842 50.2321 43.0337 49.1559C41.6632 48.6565 40.6618 48.3681 40.6618 47.4326C40.6618 46.7573 41.09 46.272 42.5856 46.272Z" fill="#2722FF"/>
<path d="M112 50.0361C112 53.4296 109.651 56 106.511 56C105.119 56 103.895 55.3719 102.958 54.4043V55.6607H101V40H102.958V45.6679C103.895 44.7004 105.112 44.0722 106.511 44.0722C109.651 44.0722 112 46.6354 112 50.0361ZM109.958 50.0361C109.958 47.7184 108.476 46.0578 106.427 46.0578C104.377 46.0578 102.895 47.7256 102.895 50.0361C102.895 52.3538 104.377 54.0144 106.427 54.0144C108.476 54.0144 109.958 52.3538 109.958 50.0361Z" fill="#2722FF"/>
<path d="M124.537 53.8215C124.458 53.8215 124.391 53.8081 124.325 53.7879C124.12 53.714 124.001 53.5324 124.001 53.2634L124.226 50.5L124.319 49.5318L124.729 45.2353H122.889L122.75 46.8423C122.75 46.8423 122.75 46.8356 122.743 46.8356C122.737 46.8221 122.723 46.802 122.717 46.7885C122.584 46.5935 122.426 46.412 122.254 46.2573C121.406 45.4908 120.347 45 119.149 45C116.204 45 114 47.3668 114 50.5C114 53.6333 116.211 56 119.149 56C120.433 56 121.559 55.4419 122.432 54.5746C122.445 54.7024 122.459 54.7561 122.498 54.857C122.505 54.8704 122.505 54.8771 122.505 54.8771C122.604 55.0721 122.73 55.2402 122.896 55.368C123.101 55.5227 123.352 55.6235 123.65 55.6706C123.763 55.6907 123.888 55.6975 124.014 55.6975H124.319H125V53.8282H124.537V53.8215ZM119.242 54.1779C117.323 54.1779 115.933 52.6381 115.933 50.5C115.933 48.3619 117.323 46.8221 119.242 46.8221C121.161 46.8221 122.551 48.3619 122.551 50.5C122.551 52.6381 121.161 54.1779 119.242 54.1779Z" fill="#2722FF"/>
<path d="M133.391 45C131.965 45 130.771 45.66 129.92 46.5812V45.3162H128V55.9931H129.92V50.3763C129.92 48.4994 131.196 46.8769 133.288 46.8769C135.037 46.8769 136.08 47.9906 136.08 49.5925V56H138V49.4206C137.994 46.5744 136.224 45 133.391 45Z" fill="#2722FF"/>
<path d="M143.85 50.073L149.418 44.5229H146.877L141.933 49.4818V40H140V56H141.933V50.945L147.181 56H150L143.85 50.073Z" fill="#2722FF"/>
</svg>
