<svg width="188" height="96" viewBox="0 0 188 96" fill="none" xmlns="http://www.w3.org/2000/svg">
<rect width="188" height="96" fill="white"/>
<path fill-rule="evenodd" clip-rule="evenodd" d="M34.915 50.7892V46.6012C34.915 45.4132 34.2651 44.8492 33.1737 44.8492C32.2663 44.8492 31.4814 45.3772 31.1381 45.9052C30.9174 45.2452 30.3655 44.8492 29.4949 44.8492C28.5874 44.8492 27.8026 45.4012 27.5574 45.7492V44.9932H26V50.7892H27.5574V46.8892C27.7904 46.5652 28.2441 46.2052 28.7836 46.2052C29.4213 46.2052 29.6666 46.5892 29.6666 47.1292V50.7892H31.2362V46.8772C31.4569 46.5652 31.9106 46.2052 32.4625 46.2052C33.1001 46.2052 33.3454 46.5892 33.3454 47.1292V50.7892H34.915ZM39.1947 50.9332C37.2449 50.9332 36.0677 49.5412 36.0677 47.8852C36.0677 46.2412 37.2449 44.8492 39.1947 44.8492C41.1568 44.8492 42.334 46.2412 42.334 47.8852C42.334 49.5412 41.1568 50.9332 39.1947 50.9332ZM39.1947 49.5772C40.1635 49.5772 40.7153 48.7972 40.7153 47.8852C40.7153 46.9852 40.1635 46.2052 39.1947 46.2052C38.226 46.2052 37.6864 46.9852 37.6864 47.8852C37.6864 48.7972 38.226 49.5772 39.1947 49.5772ZM49.0417 50.7892V46.6972C49.0417 45.5692 48.4163 44.8492 47.1164 44.8492C46.1477 44.8492 45.4242 45.3052 45.044 45.7492V44.9932H43.4867V50.7892H45.044V46.8892C45.3016 46.5412 45.7798 46.2052 46.3929 46.2052C47.0551 46.2052 47.4843 46.4812 47.4843 47.2852V50.7892H49.0417ZM53.3337 50.9332C51.3839 50.9332 50.2067 49.5412 50.2067 47.8852C50.2067 46.2412 51.3839 44.8492 53.3337 44.8492C55.2957 44.8492 56.4729 46.2412 56.4729 47.8852C56.4729 49.5412 55.2957 50.9332 53.3337 50.9332ZM53.3337 49.5772C54.3024 49.5772 54.8542 48.7972 54.8542 47.8852C54.8542 46.9852 54.3024 46.2052 53.3337 46.2052C52.3649 46.2052 51.8253 46.9852 51.8253 47.8852C51.8253 48.7972 52.3649 49.5772 53.3337 49.5772ZM59.183 48.9292C59.4405 49.3012 60.0169 49.5772 60.5196 49.5772C61.4271 49.5772 62.0279 48.9052 62.0279 47.8972C62.0279 46.8892 61.4271 46.2052 60.5196 46.2052C60.0169 46.2052 59.4405 46.4932 59.183 46.8772V48.9292ZM59.183 50.7892H57.6256V42.7852H59.183V45.7372C59.649 45.1492 60.3112 44.8492 61.0101 44.8492C62.5185 44.8492 63.6344 46.0012 63.6344 47.8972C63.6344 49.8292 62.5062 50.9332 61.0101 50.9332C60.2989 50.9332 59.649 50.6212 59.183 50.0452V50.7892ZM69.9252 50.7892H68.3678V50.1892C67.9631 50.6572 67.2641 50.9332 66.4916 50.9332C65.5474 50.9332 64.4314 50.3092 64.4314 49.0132C64.4314 47.6572 65.5474 47.1412 66.4916 47.1412C67.2764 47.1412 67.9754 47.3932 68.3678 47.8492V47.0692C68.3678 46.4812 67.8527 46.0972 67.0679 46.0972C66.4303 46.0972 65.8417 46.3252 65.3389 46.7812L64.7503 45.7612C65.4738 45.1372 66.4057 44.8492 67.3377 44.8492C68.6866 44.8492 69.9252 45.3772 69.9252 47.0452V50.7892ZM67.117 49.9012C67.6198 49.9012 68.1103 49.7332 68.3678 49.3972V48.6772C68.1103 48.3412 67.6198 48.1732 67.117 48.1732C66.5038 48.1732 66.0011 48.4852 66.0011 49.0492C66.0011 49.5892 66.5038 49.9012 67.117 49.9012ZM77.0253 50.7892V46.6972C77.0253 45.5692 76.3999 44.8492 75.1 44.8492C74.1313 44.8492 73.4078 45.3052 73.0276 45.7492V44.9932H71.4703V50.7892H73.0276V46.8892C73.2851 46.5412 73.7634 46.2052 74.3765 46.2052C75.0387 46.2052 75.4679 46.4812 75.4679 47.2852V50.7892H77.0253ZM84.3584 50.7892L81.9426 47.6212L84.2848 44.9932H82.3718L80.1278 47.5732V42.7852H78.5704V50.7892H80.1278V49.3012L80.839 48.5572L82.4086 50.7892H84.3584Z" fill="black"/>
<path fill-rule="evenodd" clip-rule="evenodd" d="M157.444 43.8799H158.72V47.8509H158.792L160.451 45.9434L161.628 45.9404L159.808 48.0254L162 50.6329H160.531L158.738 48.2059H158.72V50.6329H157.444V43.8799ZM96.7934 44.1819V47.8849C96.7934 49.1464 97.1751 49.8359 98.2445 49.8359C99.2679 49.8359 99.6772 48.9999 99.6772 47.9579V44.1819H100.883V48.1884C100.883 49.8174 99.7927 50.7404 98.2067 50.7404C96.3908 50.7404 95.4465 49.8819 95.4465 48.1239V44.1819H96.7934ZM103.701 46.5674C104.133 46.1259 104.734 45.9139 105.337 45.9139C106.455 45.9139 107.047 46.5019 107.047 47.6624V50.6289H105.778V47.8019C105.778 47.1564 105.482 46.7324 104.821 46.7324C104.2 46.7324 103.712 47.1289 103.712 47.8849V50.6289H102.442V46.0234H103.701V46.5674ZM108.54 50.6289H109.81V46.0234H108.54V50.6289ZM108.415 44.6424C108.415 44.2929 108.72 43.9329 109.152 43.9329C109.591 43.9329 109.933 44.2834 109.933 44.6424C109.933 45.0379 109.639 45.4159 109.17 45.4159C108.72 45.4159 108.415 45.0379 108.415 44.6424ZM112.622 50.6289L110.588 46.0039H111.934C112.346 47.0634 112.773 48.0599 113.174 49.3399H113.193C113.625 48.0599 114.031 47.0634 114.47 46.0039H115.662L113.509 50.6289H112.622ZM119.443 47.7744C119.493 47.0724 119.234 46.5949 118.605 46.5949C117.876 46.5949 117.549 47.1564 117.563 47.7744H119.443ZM117.542 48.4374C117.513 49.3039 118.144 49.9474 118.937 49.9474C119.408 49.9474 119.903 49.7909 120.219 49.5784L120.582 50.2239C119.932 50.5919 119.253 50.7404 118.708 50.7404C117.265 50.7404 116.186 49.7539 116.186 48.2344C116.186 46.8154 117.255 45.9139 118.622 45.9139C120.113 45.9139 120.735 47.0644 120.641 48.4374H117.542ZM123.135 46.8339H123.153L123.411 46.4749C123.553 46.2714 123.84 45.9139 124.232 45.9139C124.519 45.9139 124.826 46.0614 125.094 46.3274L124.614 47.1749C124.404 47.0724 124.27 47.0184 124.014 47.0184C123.574 47.0184 123.144 47.3594 123.144 48.3534V50.6289H121.869V46.0234H123.135V46.8339ZM128.486 46.8889C128.2 46.6864 127.903 46.5949 127.673 46.5949C127.386 46.5949 127.099 46.7509 127.099 47.0644C127.099 47.4329 127.559 47.6454 128.094 48.0214C128.774 48.5119 128.973 48.9904 128.973 49.4119C128.973 50.0589 128.236 50.7404 127.187 50.7404C126.526 50.7404 126.04 50.5184 125.591 50.2149L125.993 49.5784C126.278 49.8009 126.688 50.0204 127.031 50.0204C127.397 50.0204 127.721 49.8359 127.721 49.4494C127.721 49.0164 127.223 48.7774 126.766 48.4639C126.22 48.1054 125.849 47.7549 125.849 47.1849C125.849 46.4559 126.573 45.9139 127.51 45.9139C128.037 45.9139 128.552 46.0419 128.898 46.3379L128.486 46.8889ZM132.107 48.1789C131.486 48.3724 131.171 48.7129 131.171 49.2374C131.171 49.6434 131.439 49.9199 131.747 49.9199C132.251 49.9199 132.911 49.3114 132.817 47.9579L132.107 48.1789ZM132.51 50.1874C132.165 50.4639 131.726 50.7404 131.287 50.7404C130.541 50.7404 129.918 50.1874 129.918 49.3399C129.918 48.4639 130.579 47.9764 131.689 47.6624L132.817 47.3399C132.75 46.9169 132.357 46.6504 131.948 46.6504C131.401 46.6504 131.019 46.8439 130.685 47.1204L130.272 46.5399C130.866 46.0704 131.448 45.9139 132.107 45.9139C132.988 45.9139 134.069 46.1884 134.069 47.6269V49.5049C134.069 49.8739 134.115 50.3079 134.269 50.6289H132.922C132.824 50.4719 132.797 50.2059 132.797 49.9569L132.51 50.1874ZM135.493 50.6289H136.765V43.8594H135.493V50.6289ZM148.023 48.1789C147.4 48.3724 147.085 48.7129 147.085 49.2374C147.085 49.6434 147.351 49.9199 147.659 49.9199C148.163 49.9199 148.824 49.3114 148.731 47.9579L148.023 48.1789ZM148.421 50.1874C148.079 50.4639 147.638 50.7404 147.198 50.7404C146.454 50.7404 145.831 50.1874 145.831 49.3399C145.831 48.4639 146.491 47.9764 147.602 47.6624L148.731 47.3399C148.661 46.9169 148.271 46.6504 147.857 46.6504C147.314 46.6504 146.931 46.8439 146.596 47.1204L146.185 46.5399C146.778 46.0704 147.362 45.9139 148.023 45.9139C148.9 45.9139 149.979 46.1884 149.979 47.6269V49.5049C149.979 49.8739 150.026 50.3079 150.179 50.6289H148.833C148.739 50.4719 148.707 50.2059 148.707 49.9569L148.421 50.1874ZM152.666 46.5674C153.096 46.1259 153.699 45.9139 154.301 45.9139C155.419 45.9139 156.011 46.5019 156.011 47.6624V50.6289H154.74V47.8019C154.74 47.1564 154.444 46.7324 153.784 46.7324C153.162 46.7324 152.675 47.1289 152.675 47.8849V50.6289H151.404V46.0234H152.666V46.5674ZM141.402 49.8534H142.089C142.835 49.8534 143.401 49.4764 143.401 48.7589C143.401 48.0029 142.818 47.6809 142.082 47.6809H141.402V49.8534ZM141.402 46.8889H141.824C142.599 46.8889 143.126 46.4104 143.126 45.8104C143.126 45.2404 142.684 44.9924 142.101 44.9924H141.401L141.402 46.8889ZM140.055 50.6464V44.1994H142.474C143.601 44.1994 144.395 44.6964 144.395 45.5714C144.395 46.6024 143.526 47.0274 143.058 47.1464V47.1649C143.889 47.2024 144.815 47.7539 144.815 48.7394C144.815 49.8534 143.849 50.6464 142.274 50.6464H140.055Z" fill="#565656"/>
<path fill-rule="evenodd" clip-rule="evenodd" d="M89.6069 42.2891H90.1179V54.2891H89.6069V42.2891Z" fill="black"/>
</svg>
