<svg width="145" height="74" viewBox="0 0 145 74" fill="none" xmlns="http://www.w3.org/2000/svg">
<g clip-path="url(#clip0_47_1654)">
<rect width="145" height="74" fill="white"/>
<path d="M52.3443 22L47.9937 31.6941H36.5L44.9234 38.5354L39.3293 51L49.8872 42.5671L56.6287 48.0425L55.0496 38.4437L63.5 31.6941H53.9392L52.3443 22Z" fill="#F04F23"/>
<path d="M69.5 33H66.5V42H69.5V33Z" fill="#F04F23"/>
<path d="M83.5 36.3C83.5 34.275 81.6268 33 78 33C74.0942 33 72.5 34.5 72.5 37.5C72.5 40.5 74.0942 42 78 42C81.6268 42 83.5 40.725 83.5 38.7H80.2319C79.7536 40.425 75.7681 40.8 75.7681 37.5C75.7681 34.2 79.7536 34.575 80.2319 36.3H83.5Z" fill="#F04F23"/>
<path d="M85.5 33V35.1696H88.1667C88.2993 35.1696 88.4264 35.2204 88.5202 35.3109C88.614 35.4013 88.6667 35.5239 88.6667 35.6518V42H92.3333V35.6518C92.3333 35.5239 92.386 35.4013 92.4798 35.3109C92.5736 35.2204 92.7007 35.1696 92.8333 35.1696H95.5V33H85.5Z" fill="#F04F23"/>
<path d="M97.4024 33L100.256 42H105.646L108.5 33H105.012L103.348 38.9464C103.181 39.5411 102.721 39.5411 102.555 38.9464L100.89 33H95.5H97.4024Z" fill="#F04F23"/>
</g>
<defs>
<clipPath id="clip0_47_1654">
<rect width="145" height="74" fill="white"/>
</clipPath>
</defs>
</svg>
