<svg width="188" height="96" viewBox="0 0 188 96" fill="none" xmlns="http://www.w3.org/2000/svg">
<rect width="188" height="96" fill="white"/>
<path d="M98.5926 35.4947C97.4815 36.1886 97 37.484 97 41C97 41 97.5556 40.3061 98.4444 39.8897C99.0926 39.589 99.5556 39.1957 99.8889 38.895C100.852 37.9929 101 36.9057 101 35.0089C100.981 35.0089 99.463 34.8933 98.5926 35.4947Z" fill="#FBBD71"/>
<path d="M90.729 36.2463C89.6349 37.1715 89.3614 38.7637 89.3614 38.7637L85.8267 52.6196L82.9233 41.281C82.6498 40.0761 82.1027 38.5915 81.2822 37.5588C80.2723 36.2463 78.1683 36.1603 77.9158 36.1603C77.7265 36.1603 75.6436 36.2463 74.5495 37.5588C73.729 38.5915 73.1819 40.0761 72.9084 41.281L70.1733 52.6196L66.6386 38.7637C66.6386 38.7637 66.3651 37.2791 65.271 36.2463C63.5458 34.6542 61 35.0415 61 35.0415L67.7327 60.9676C67.7327 60.9676 69.9208 61.1612 71.0149 60.6018C72.4666 59.8488 73.203 59.3109 74.0235 55.7609C74.8441 52.5981 77.0322 43.3895 77.2005 42.744C77.2847 42.4643 77.474 41.6252 78.021 41.6252C78.5681 41.6252 78.7574 42.3782 78.8416 42.744C79.0309 43.3895 81.198 52.5981 82.0186 55.7609C82.9233 59.2894 83.5545 59.8488 85.0272 60.6018C86.1213 61.1612 88.3094 60.9676 88.3094 60.9676L95 35.0415C95 35.0415 92.4542 34.6757 90.729 36.2463Z" fill="black"/>
<path d="M101 39C101 39 100.593 39.6544 99.7963 40.2216C99.2407 40.5925 98.7593 40.7888 98.2037 41.1596C97.2407 41.7268 97 42.294 97 43.1447V43.4283V44.8463V45.1299V60.9671C97 60.9671 98.5185 61.1635 99.4815 60.5963C100.759 59.8328 101 59.0911 101 55.8844V40.0471V39Z" fill="black"/>
<path d="M118.488 48.0517L127 35.122C127 35.122 123.478 34.4766 121.654 36.1547C120.479 37.1873 119.305 39.1236 119.305 39.1236L116.223 43.7705C116.035 44.0502 115.867 44.2438 115.594 44.2438C115.322 44.2438 115.049 43.9641 114.965 43.7705L111.883 39.1236C111.883 39.1236 110.625 37.2734 109.535 36.1547C107.732 34.4766 104.189 35.122 104.189 35.122L112.428 48.0302L104 60.9384C104 60.9384 107.711 61.4117 109.535 59.7337C110.709 58.701 111.799 56.9369 111.799 56.9369L114.881 52.2899C115.07 52.0103 115.238 51.8166 115.51 51.8166C115.783 51.8166 116.056 52.0963 116.139 52.2899L119.222 56.9369C119.222 56.9369 120.396 58.701 121.486 59.7337C123.289 61.4117 126.916 60.9384 126.916 60.9384L118.488 48.0517Z" fill="black"/>
</svg>
